<svg width="176" height="88" viewBox="0 0 176 88" fill="none" xmlns="http://www.w3.org/2000/svg">
<rect width="176" height="88" fill="#FFE4FC"/>
<path fill-rule="evenodd" clip-rule="evenodd" d="M136.413 44.3297C136.413 37.4263 133.078 31.9791 126.703 31.9791C120.302 31.9791 116.429 37.4263 116.429 44.2758C116.429 52.3926 121.001 56.4915 127.564 56.4915C130.765 56.4915 133.185 55.7634 135.014 54.7387V49.3454C133.185 50.2623 131.087 50.8286 128.425 50.8286C125.816 50.8286 123.503 49.9117 123.207 46.7297H136.359C136.359 46.3791 136.413 44.9769 136.413 44.3297ZM123.126 41.7679C123.126 38.7207 124.982 37.4533 126.677 37.4533C128.317 37.4533 130.065 38.7207 130.065 41.7679H123.126Z" fill="black"/>
<path fill-rule="evenodd" clip-rule="evenodd" d="M106.047 31.9791C103.411 31.9791 101.717 33.2196 100.775 34.0825L100.426 32.4106H94.5087V63.8533L101.233 62.4241L101.26 54.7926C102.228 55.4937 103.653 56.4915 106.02 56.4915C110.835 56.4915 115.219 52.6083 115.219 44.06C115.192 36.2398 110.754 31.9791 106.047 31.9791ZM104.433 50.5589C102.846 50.5589 101.905 49.9926 101.26 49.2915L101.233 39.287C101.932 38.505 102.9 37.9656 104.433 37.9656C106.881 37.9656 108.575 40.7162 108.575 44.2488C108.575 47.8623 106.908 50.5589 104.433 50.5589Z" fill="black"/>
<path fill-rule="evenodd" clip-rule="evenodd" d="M85.2565 30.3881L92.0074 28.9319V23.4578L85.2565 24.887V30.3881Z" fill="black"/>
<path d="M92.0074 32.4376H85.2565V56.0331H92.0074V32.4376Z" fill="black"/>
<path fill-rule="evenodd" clip-rule="evenodd" d="M78.0214 34.4331L77.5911 32.4376H71.7815V56.0331H78.5055V40.042C80.0924 37.9656 82.782 38.3432 83.6158 38.6398V32.4376C82.7551 32.114 79.6083 31.5207 78.0214 34.4331Z" fill="black"/>
<path fill-rule="evenodd" clip-rule="evenodd" d="M64.5732 26.5858L58.0105 27.9881L57.9836 49.5881C57.9836 53.5791 60.9691 56.5184 64.9498 56.5184C67.1552 56.5184 68.769 56.1139 69.6566 55.6285V50.1544C68.7959 50.5049 64.5463 51.7454 64.5463 47.7544V38.1813H69.6566V32.4375H64.5463L64.5732 26.5858Z" fill="black"/>
<path fill-rule="evenodd" clip-rule="evenodd" d="M46.3914 39.287C46.3914 38.2353 47.2521 37.8308 48.6776 37.8308C50.7217 37.8308 53.3037 38.451 55.3478 39.5567V33.2196C53.1154 32.3297 50.91 31.9791 48.6776 31.9791C43.2177 31.9791 39.5867 34.8376 39.5867 39.6106C39.5867 47.0533 49.8072 45.8668 49.8072 49.0758C49.8072 50.3162 48.7314 50.7207 47.2252 50.7207C44.9928 50.7207 42.1418 49.8038 39.8825 48.5634V54.9814C42.3839 56.06 44.9121 56.5185 47.2252 56.5185C52.8196 56.5185 56.6657 53.7409 56.6657 48.914C56.6388 40.878 46.3914 42.3072 46.3914 39.287Z" fill="black"/>
</svg>
