<svg width="176" height="88" viewBox="0 0 176 88" fill="none" xmlns="http://www.w3.org/2000/svg">
<rect width="176" height="88" fill="#5B004B"/>
<path fill-rule="evenodd" clip-rule="evenodd" d="M136.413 44.3297C136.413 37.4263 133.078 31.9791 126.704 31.9791C120.302 31.9791 116.429 37.4263 116.429 44.2758C116.429 52.3926 121.002 56.4915 127.564 56.4915C130.765 56.4915 133.186 55.7634 135.015 54.7387V49.3454C133.186 50.2623 131.088 50.8286 128.425 50.8286C125.816 50.8286 123.503 49.9117 123.207 46.7297H136.359C136.359 46.3791 136.413 44.9769 136.413 44.3297ZM123.126 41.7679C123.126 38.7207 124.982 37.4533 126.677 37.4533C128.317 37.4533 130.066 38.7207 130.066 41.7679H123.126Z" fill="white"/>
<path fill-rule="evenodd" clip-rule="evenodd" d="M106.047 31.9791C103.412 31.9791 101.717 33.2196 100.776 34.0825L100.426 32.4106H94.5089V63.8533L101.233 62.4241L101.26 54.7926C102.228 55.4937 103.654 56.4915 106.02 56.4915C110.835 56.4915 115.219 52.6083 115.219 44.06C115.192 36.2398 110.754 31.9791 106.047 31.9791ZM104.434 50.5589C102.847 50.5589 101.905 49.9926 101.26 49.2915L101.233 39.287C101.932 38.505 102.901 37.9656 104.434 37.9656C106.881 37.9656 108.576 40.7162 108.576 44.2488C108.576 47.8623 106.908 50.5589 104.434 50.5589Z" fill="white"/>
<path fill-rule="evenodd" clip-rule="evenodd" d="M85.2566 30.3882L92.0075 28.932V23.4579L85.2566 24.8871V30.3882Z" fill="white"/>
<path d="M92.0075 32.4377H85.2566V56.0332H92.0075V32.4377Z" fill="white"/>
<path fill-rule="evenodd" clip-rule="evenodd" d="M78.0215 34.4331L77.5912 32.4376H71.7816V56.0331H78.5057V40.042C80.0925 37.9656 82.7822 38.3432 83.6159 38.6398V32.4376C82.7553 32.114 79.6084 31.5207 78.0215 34.4331Z" fill="white"/>
<path fill-rule="evenodd" clip-rule="evenodd" d="M64.5734 26.5859L58.0108 27.9881L57.9839 49.5881C57.9839 53.5791 60.9694 56.5185 64.95 56.5185C67.1555 56.5185 68.7693 56.114 69.6568 55.6286V50.1544C68.7962 50.505 64.5466 51.7454 64.5466 47.7544V38.1814H69.6568V32.4376H64.5466L64.5734 26.5859Z" fill="white"/>
<path fill-rule="evenodd" clip-rule="evenodd" d="M46.3916 39.287C46.3916 38.2353 47.2523 37.8308 48.6778 37.8308C50.7219 37.8308 53.304 38.451 55.3481 39.5567V33.2196C53.1157 32.3297 50.9102 31.9791 48.6778 31.9791C43.2179 31.9791 39.5869 34.8376 39.5869 39.6106C39.5869 47.0533 49.8075 45.8668 49.8075 49.0758C49.8075 50.3162 48.7316 50.7207 47.2254 50.7207C44.993 50.7207 42.1421 49.8038 39.8828 48.5634V54.9814C42.3841 56.06 44.9124 56.5185 47.2254 56.5185C52.8198 56.5185 56.666 53.7409 56.666 48.914C56.6391 40.878 46.3916 42.3072 46.3916 39.287Z" fill="white"/>
</svg>
