<svg width="176" height="88" viewBox="0 0 176 88" fill="none" xmlns="http://www.w3.org/2000/svg">
<rect width="176" height="88" fill="#FFE4FC"/>
<g clip-path="url(#clip0_2063_28585)">
<path d="M40.139 38.7727V43.0455H50.4503C50.1766 45.4091 49.3553 47.2273 48.0778 48.4091C46.6178 49.8636 44.2453 51.5 40.139 51.5C33.8427 51.5 28.9152 46.4091 28.9152 40.1364C28.9152 33.8636 33.7515 28.7727 40.139 28.7727C43.5153 28.7727 46.0703 30.1364 47.8953 31.8636L50.9066 28.8636C48.3516 26.4091 44.8841 24.5 40.139 24.5C31.4702 24.5 24.1702 31.5 24.1702 40.1364C24.1702 48.7727 31.4702 55.7727 40.139 55.7727C44.7928 55.7727 48.3516 54.2273 51.0891 51.4091C53.9179 48.5909 54.8304 44.5909 54.8304 41.4091C54.8304 40.4091 54.7391 39.5 54.6479 38.7727H40.139Z" fill="black"/>
<path d="M67.6054 35.2272C62.0392 35.2272 57.3854 39.4999 57.3854 45.3181C57.3854 51.1363 61.9479 55.409 67.6054 55.409C73.263 55.409 77.8255 51.2272 77.8255 45.409C77.8255 39.4999 73.263 35.2272 67.6054 35.2272ZM67.6054 51.4999C64.5029 51.4999 61.8567 48.9544 61.8567 45.409C61.8567 41.7726 64.5029 39.3181 67.6054 39.3181C70.708 39.3181 73.3542 41.7726 73.3542 45.409C73.3542 48.9544 70.708 51.4999 67.6054 51.4999Z" fill="black"/>
<path d="M117.52 37.4999H117.337C116.333 36.3181 114.417 35.2272 111.953 35.2272C106.843 35.2272 102.463 39.5908 102.463 45.3181C102.463 50.9544 106.843 55.409 111.953 55.409C114.417 55.409 116.333 54.3181 117.337 53.1363H117.52V54.5908C117.52 58.409 115.421 60.4999 112.136 60.4999C109.398 60.4999 107.756 58.5908 107.026 56.8635L103.193 58.4999C104.288 61.1363 107.3 64.4999 112.227 64.4999C117.428 64.4999 121.9 61.409 121.9 53.9544V35.7726H117.702V37.4999H117.52ZM112.41 51.4999C109.307 51.4999 107.026 48.8635 107.026 45.409C107.026 41.8635 109.398 39.3181 112.41 39.3181C115.421 39.3181 117.793 41.9544 117.793 45.4999C117.885 48.9544 115.512 51.4999 112.41 51.4999Z" fill="black"/>
<path d="M90.327 35.2272C84.7607 35.2272 80.1069 39.4999 80.1069 45.3181C80.1069 51.1363 84.6695 55.409 90.327 55.409C95.9845 55.409 100.547 51.2272 100.547 45.409C100.547 39.4999 95.9845 35.2272 90.327 35.2272ZM90.327 51.4999C87.2245 51.4999 84.5782 48.9544 84.5782 45.409C84.5782 41.7726 87.2245 39.3181 90.327 39.3181C93.4295 39.3181 96.0758 41.7726 96.0758 45.409C96.0758 48.9544 93.4295 51.4999 90.327 51.4999Z" fill="black"/>
<path d="M125.276 24.9546H129.656V55.5H125.276V24.9546Z" fill="black"/>
<path d="M143.161 51.4999C140.88 51.4999 139.328 50.4999 138.233 48.409L151.83 42.8635L151.374 41.6817C150.552 39.409 147.906 35.2272 142.705 35.2272C137.503 35.2272 133.123 39.3181 133.123 45.3181C133.123 50.9544 137.412 55.409 143.161 55.409C147.815 55.409 150.461 52.5908 151.647 50.9544L148.18 48.6817C146.993 50.409 145.442 51.4999 143.161 51.4999ZM142.887 39.0454C144.712 39.0454 146.264 39.9544 146.72 41.2272L137.595 45.0454C137.503 40.8635 140.606 39.0454 142.887 39.0454Z" fill="black"/>
</g>
<defs>
<clipPath id="clip0_2063_28585">
<rect width="127.66" height="40" fill="white" transform="translate(24.1702 24.5)"/>
</clipPath>
</defs>
</svg>
