<svg width="176" height="88" viewBox="0 0 176 88" fill="none" xmlns="http://www.w3.org/2000/svg">
<rect width="176" height="88" fill="#5B004B"/>
<g clip-path="url(#clip0_2063_28504)">
<path d="M40.139 38.7727V43.0455H50.4503C50.1766 45.4091 49.3553 47.2273 48.0778 48.4091C46.6178 49.8636 44.2453 51.5 40.139 51.5C33.8427 51.5 28.9152 46.4091 28.9152 40.1364C28.9152 33.8636 33.7515 28.7727 40.139 28.7727C43.5153 28.7727 46.0703 30.1364 47.8953 31.8636L50.9066 28.8636C48.3516 26.4091 44.8841 24.5 40.139 24.5C31.4702 24.5 24.1702 31.5 24.1702 40.1364C24.1702 48.7727 31.4702 55.7727 40.139 55.7727C44.7928 55.7727 48.3516 54.2273 51.0891 51.4091C53.9179 48.5909 54.8304 44.5909 54.8304 41.4091C54.8304 40.4091 54.7391 39.5 54.6479 38.7727H40.139Z" fill="white"/>
<path d="M67.6054 35.2272C62.0392 35.2272 57.3854 39.5 57.3854 45.3181C57.3854 51.1363 61.9479 55.4091 67.6054 55.4091C73.263 55.4091 77.8255 51.2272 77.8255 45.4091C77.8255 39.5 73.263 35.2272 67.6054 35.2272ZM67.6054 51.5C64.5029 51.5 61.8567 48.9545 61.8567 45.4091C61.8567 41.7727 64.5029 39.3181 67.6054 39.3181C70.708 39.3181 73.3542 41.7727 73.3542 45.4091C73.3542 48.9545 70.708 51.5 67.6054 51.5Z" fill="white"/>
<path d="M117.52 37.5H117.337C116.333 36.3181 114.417 35.2272 111.953 35.2272C106.843 35.2272 102.463 39.5909 102.463 45.3181C102.463 50.9545 106.843 55.4091 111.953 55.4091C114.417 55.4091 116.333 54.3181 117.337 53.1363H117.52V54.5909C117.52 58.4091 115.421 60.5 112.136 60.5C109.398 60.5 107.756 58.5909 107.026 56.8636L103.193 58.5C104.288 61.1363 107.3 64.5 112.227 64.5C117.428 64.5 121.9 61.4091 121.9 53.9545V35.7727H117.702V37.5H117.52ZM112.41 51.5C109.307 51.5 107.026 48.8636 107.026 45.4091C107.026 41.8636 109.398 39.3181 112.41 39.3181C115.421 39.3181 117.793 41.9545 117.793 45.5C117.885 48.9545 115.512 51.5 112.41 51.5Z" fill="white"/>
<path d="M90.3269 35.2272C84.7606 35.2272 80.1068 39.5 80.1068 45.3181C80.1068 51.1363 84.6693 55.4091 90.3269 55.4091C95.9844 55.4091 100.547 51.2272 100.547 45.4091C100.547 39.5 95.9844 35.2272 90.3269 35.2272ZM90.3269 51.5C87.2244 51.5 84.5781 48.9545 84.5781 45.4091C84.5781 41.7727 87.2244 39.3181 90.3269 39.3181C93.4294 39.3181 96.0757 41.7727 96.0757 45.4091C96.0757 48.9545 93.4294 51.5 90.3269 51.5Z" fill="white"/>
<path d="M125.276 24.9547H129.656V55.5001H125.276V24.9547Z" fill="white"/>
<path d="M143.161 51.5C140.88 51.5 139.328 50.5 138.233 48.4091L151.83 42.8636L151.374 41.6818C150.552 39.4091 147.906 35.2272 142.705 35.2272C137.503 35.2272 133.123 39.3181 133.123 45.3181C133.123 50.9545 137.412 55.4091 143.161 55.4091C147.815 55.4091 150.461 52.5909 151.647 50.9545L148.18 48.6818C146.993 50.4091 145.442 51.5 143.161 51.5ZM142.887 39.0454C144.712 39.0454 146.264 39.9545 146.72 41.2272L137.595 45.0454C137.503 40.8636 140.606 39.0454 142.887 39.0454Z" fill="white"/>
</g>
<defs>
<clipPath id="clip0_2063_28504">
<rect width="127.66" height="40" fill="white" transform="translate(24.1702 24.5)"/>
</clipPath>
</defs>
</svg>
