<svg width="1312" height="546" viewBox="0 0 1312 546" fill="none" xmlns="http://www.w3.org/2000/svg">
<g clip-path="url(#clip0_2063_28781)">
<g opacity="0.05">
<path d="M1261.91 907.173C1400.52 584.138 1241.61 213.795 906.975 79.9893C572.342 -53.8163 188.703 99.5846 50.0936 422.62C-88.5159 745.656 70.3924 1116 405.025 1249.8C739.658 1383.61 1123.3 1230.21 1261.91 907.173Z" fill="white"/>
<path d="M655.948 1105.36C639.558 1114.46 622.598 1122.57 605.167 1129.65C553.819 1150.35 498.748 1161.09 443.101 1161.24C501.412 1217.48 575.332 1256.24 655.948 1272.84C736.564 1256.24 810.484 1217.48 868.795 1161.24C813.167 1161.2 758.093 1150.56 706.729 1129.95C689.29 1122.78 672.33 1114.57 655.948 1105.36Z" fill="#A30589"/>
<path d="M978.846 976.328C973.989 993.969 967.956 1011.29 960.787 1028.18C939.402 1077.9 908.152 1123.1 868.795 1161.24C951.006 1161.19 1031.44 1138.1 1100.32 1094.78C1145.12 1028.25 1169.03 950.634 1169.16 871.283C1116.32 921.753 1050.7 957.972 978.846 976.328Z" fill="#A30589"/>
<path d="M333.359 976.328C315.084 971.639 297.142 965.816 279.645 958.895C228.278 938.306 181.565 908.243 142.121 870.389C142.17 949.751 166.084 1027.39 210.96 1093.89C279.843 1137.21 360.272 1160.29 442.483 1160.34C403.222 1122.3 372.072 1077.2 350.8 1027.58C343.865 1010.87 338.04 993.753 333.359 976.328Z" fill="#A30589"/>
<path d="M199.693 664.919C190.264 649.097 181.861 632.725 174.534 615.898C153.176 566.313 142.161 513.148 142.12 459.448C83.8587 515.738 43.7091 587.097 26.5132 664.919C43.7091 742.741 83.8587 814.099 142.121 870.389C142.218 816.791 153.231 763.734 174.534 714.238C181.85 697.309 190.252 680.837 199.693 664.919Z" fill="#A30589"/>
<path d="M333.359 353.51C338.216 335.868 344.248 318.548 351.418 301.658C372.69 252.042 403.839 206.937 443.101 168.899C360.908 169.066 280.513 192.142 211.577 235.353C166.821 301.894 142.967 379.515 142.892 458.852C182.217 421.507 228.655 391.857 279.645 371.539C297.128 364.415 315.07 358.393 333.359 353.51Z" fill="#A30589"/>
<path d="M655.948 224.476C672.338 215.374 689.298 207.263 706.729 200.189C758.116 179.642 813.175 169.012 868.795 168.899C810.484 112.656 736.564 73.8984 655.948 57.2984C575.332 73.8984 501.412 112.656 443.101 168.899C498.72 169.027 553.776 179.657 605.167 200.189C622.598 207.263 639.558 215.374 655.948 224.476Z" fill="#A30589"/>
<path d="M868.795 168.899C921.666 220.017 959.627 283.697 978.846 353.51C1051.02 372.025 1116.87 408.563 1169.78 459.448C1169.65 380.097 1145.74 302.477 1100.94 235.949C1031.91 192.378 951.267 169.086 868.795 168.899Z" fill="#A30589"/>
<path d="M1112.2 664.919C1121.64 680.838 1130.05 697.309 1137.36 714.238C1158.63 763.848 1169.64 816.996 1169.78 870.687C1228.04 814.397 1268.19 743.039 1285.38 665.217C1268.24 587.288 1228.09 515.82 1169.78 459.448C1169.66 513.141 1158.65 566.292 1137.36 615.898C1130.03 632.725 1121.63 649.097 1112.2 664.919Z" fill="#A30589"/>
<path d="M868.795 1161.24C810.484 1217.48 736.564 1256.24 655.948 1272.84C729.117 1287.87 805.103 1283.97 876.204 1261.51C886.391 1257.94 896.732 1254.21 907.073 1250.19C917.415 1246.17 927.293 1241.7 937.943 1237.23C1004.68 1204.58 1061.24 1155.43 1101.86 1094.78C1032.54 1138.38 951.532 1161.48 868.795 1161.24Z" fill="#A30589"/>
<path d="M443.101 1161.24C360.89 1161.19 280.46 1138.1 211.578 1094.78C252.159 1155.46 308.734 1204.62 375.496 1237.23C385.786 1241.7 396.076 1246.02 406.366 1250.19C416.553 1254.21 426.894 1257.94 437.236 1261.51C508.336 1283.97 584.322 1287.87 657.491 1272.84C576.324 1256.51 501.833 1217.73 443.101 1161.24Z" fill="#A30589"/>
<path d="M142.121 870.389C83.8587 814.099 43.7091 742.741 26.5132 664.919C10.82 735.742 14.8678 809.317 38.2437 878.137C41.948 887.971 45.8068 897.954 49.9742 907.937C54.1416 917.92 58.7721 927.456 63.4026 937.737C97.1754 1002.19 148.103 1056.8 210.96 1095.97C165.681 1028.88 141.75 950.461 142.121 870.389Z" fill="#A30589"/>
<path d="M142.12 459.448C142.195 380.111 166.049 302.49 210.806 235.949C148.068 275.215 97.2126 329.809 63.4026 394.186C58.7721 404.12 54.296 414.053 49.9742 423.986C45.8068 433.82 41.948 443.803 38.2437 453.786C14.9855 522.423 10.9386 595.776 26.5132 666.409C43.4299 588.055 83.5983 516.145 142.12 459.448Z" fill="#A30589"/>
<path d="M443.101 168.899C501.412 112.656 575.332 73.8984 655.948 57.2984C582.78 42.2564 506.792 46.1632 435.692 68.6223C425.505 72.1983 415.164 75.9233 404.822 80.0953C394.481 84.2673 384.603 88.4393 373.953 92.9093C307.176 125.549 250.56 174.701 209.88 235.353C279.3 191.838 360.33 168.749 443.101 168.899Z" fill="#A30589"/>
<path d="M868.795 168.899C950.995 169.024 1031.4 192.103 1100.32 235.353C1059.87 174.786 1003.52 125.64 937.017 92.9092C927.139 88.4393 917.106 84.1183 906.147 80.0953C895.189 76.0723 885.619 72.1983 875.278 68.6223C804.177 46.1702 728.191 42.2635 655.022 57.2984C735.969 73.7368 810.231 112.506 868.795 168.899Z" fill="#A30589"/>
<path d="M1169.78 459.448C1228.04 515.739 1268.19 587.097 1285.38 664.919C1300.96 594.286 1296.91 520.933 1273.65 452.296C1269.95 442.462 1266.09 432.479 1261.77 422.496C1257.45 412.513 1253.12 402.977 1248.49 392.696C1214.68 328.276 1163.76 273.672 1100.94 234.459C1146.03 301.412 1169.95 379.59 1169.78 459.448Z" fill="#A30589"/>
<path d="M1169.78 870.389C1169.65 949.74 1145.74 1027.36 1100.94 1093.89C1163.71 1054.88 1214.63 1000.48 1248.49 936.247C1253.12 926.711 1257.6 917.026 1261.77 906.447C1265.93 895.868 1269.95 886.63 1273.65 876.647C1296.91 808.011 1300.96 734.658 1285.38 664.025C1268.35 742.166 1228.19 813.855 1169.78 870.389Z" fill="#A30589"/>
<path d="M435.692 1261.22C446.188 1264.79 456.529 1268.07 466.562 1271.2L475.823 1273.73C482.923 1275.67 490.023 1277.61 496.969 1279.24L511.477 1282.52L527.993 1285.95L544.662 1288.93C549.602 1289.67 554.386 1290.57 560.097 1291.16C565.808 1291.76 571.828 1292.8 577.693 1293.4L591.893 1295.04C597.604 1295.04 603.469 1295.93 609.335 1296.38C615.2 1296.83 619.059 1297.12 624.769 1297.27H688.824C693.763 1297.27 698.548 1297.27 703.487 1296.38L721.083 1295.04L735.129 1293.4C740.994 1292.8 746.859 1292.06 752.725 1291.16C757.664 1291.16 762.449 1289.67 767.233 1288.93L784.057 1285.95L800.573 1282.52L815.082 1279.24C822.027 1277.61 828.973 1275.67 835.919 1273.73L845.643 1271.2C855.984 1268.07 866.48 1264.79 876.513 1261.22C805.412 1283.67 729.426 1287.57 656.257 1272.54C582.989 1287.63 506.889 1283.72 435.692 1261.22Z" fill="#A30589"/>
<path d="M1273.65 878.137C1277.36 868.005 1280.75 858.022 1283.99 848.337C1284.92 845.208 1285.69 842.079 1286.62 839.099C1288.62 832.394 1290.63 825.54 1292.33 818.835C1294.03 812.13 1294.64 809.448 1295.72 804.829C1296.8 800.21 1298.19 794.25 1299.27 788.886C1300.35 783.522 1301.28 778.158 1302.36 772.645C1303.44 767.132 1304.06 763.408 1304.68 758.64C1305.29 753.872 1306.37 747.315 1306.99 741.654C1307.61 735.992 1308.23 732.565 1308.69 728.095C1309.15 723.625 1309.62 716.771 1310.08 711.109C1310.54 705.447 1310.85 701.722 1311 696.954C1311.16 692.186 1311 686.226 1311 680.862C1311 675.498 1311 670.879 1311 665.962C1311 661.045 1311 655.979 1311 651.062C1311 646.145 1311 640.334 1311 634.97C1311 629.606 1311 625.583 1310.08 620.07C1309.15 614.557 1310.08 608.746 1308.69 603.233C1307.3 597.72 1307.61 594.144 1306.99 589.525C1306.37 584.906 1305.6 578.201 1304.68 572.539C1303.75 566.877 1303.13 563.152 1302.36 557.639C1301.59 552.126 1300.35 546.911 1299.27 541.547C1298.19 536.183 1296.96 530.819 1295.72 525.604C1294.49 520.389 1293.56 516.217 1292.33 511.598C1291.09 506.979 1288.62 498.188 1286.62 491.334C1285.69 488.354 1284.92 485.225 1283.99 482.096C1280.75 472.113 1277.36 462.13 1273.65 452.296C1296.91 520.933 1300.96 594.286 1285.38 664.919C1301.07 735.743 1297.02 809.315 1273.65 878.137Z" fill="#A30589"/>
<path d="M937.017 1236.93C947.05 1232.31 956.774 1227.54 966.343 1222.03L974.987 1217.41C981.315 1213.98 987.644 1210.56 993.972 1206.83L1006.47 1199.38L1020.67 1190.59L1034.72 1181.05L1046.76 1172.86L1060.8 1162.43L1071.92 1153.79L1085.35 1142.91L1096.31 1133.52C1100.47 1129.95 1104.49 1126.22 1108.5 1122.5L1119.77 1112.07C1123.47 1108.49 1127.02 1104.91 1130.57 1101.19C1134.12 1097.46 1138.29 1093.44 1141.99 1089.42C1145.7 1085.4 1148.48 1082.42 1151.56 1078.84L1162.98 1065.88C1166.07 1062.3 1168.85 1058.72 1171.78 1055.15C1174.71 1051.57 1179.19 1046.06 1182.74 1041.44C1186.29 1036.82 1188.45 1033.84 1191.23 1029.97C1194.01 1026.09 1197.87 1021.03 1201.11 1016.41C1204.35 1011.79 1207.13 1007.32 1210.06 1002.7C1212.99 998.082 1215.46 994.655 1217.93 990.632C1220.4 986.609 1225.34 978.414 1228.74 972.305C1230.43 969.474 1232.13 966.792 1233.68 963.961C1238.77 954.723 1243.71 945.336 1249.11 935.651C1215.34 1000.1 1164.41 1054.71 1101.55 1093.89C1060.85 1154.83 1004.05 1204.21 937.017 1236.93Z" fill="#A30589"/>
<path d="M38.2437 452.296C34.5393 462.428 31.1436 472.411 27.9023 482.096C26.9762 485.076 26.2045 488.056 25.2784 491.036C23.2718 497.89 21.2653 504.744 19.5675 511.449C17.8696 518.154 17.2522 520.836 16.1718 525.455C15.0913 530.074 13.7022 536.034 12.6218 541.398C11.5413 546.762 10.6152 552.126 9.53478 557.49C8.45434 562.854 7.83695 566.877 7.21955 572.39C6.60216 577.903 5.52171 583.714 4.90431 589.376C4.28692 595.038 3.66953 598.465 3.20648 603.084C2.74343 607.703 2.28038 614.259 1.81734 619.921C1.35429 625.583 1.81735 629.308 0.891252 634.821C-0.034841 640.334 0.891252 645.549 0.891252 650.764C0.891252 655.979 0.891252 660.896 0.891252 665.664C0.891252 670.432 0.891252 675.647 0.891252 680.564C0.891252 685.481 0.891252 691.292 0.891252 696.805C0.891252 702.318 0.891244 706.043 1.81734 710.662C2.74343 715.281 2.58908 722.135 3.20648 727.797C3.82388 733.459 4.28692 736.737 4.90431 741.207C5.52171 745.677 6.29346 752.68 7.21955 758.341C8.14565 764.003 8.76304 767.728 9.53478 772.347C10.3065 776.966 11.5413 783.224 12.6218 788.737C13.7022 794.25 14.937 799.167 16.1718 804.531C17.4066 809.895 18.3327 813.769 19.5675 818.537C20.8023 823.305 23.2718 831.947 25.2784 838.652C26.2045 841.781 26.9762 844.91 27.9023 848.039C31.1436 858.022 34.5393 868.154 38.2437 877.839C14.9782 809.204 10.9312 735.849 26.5132 665.217C10.883 594.488 14.9303 521.025 38.2437 452.296Z" fill="#A30589"/>
<path d="M374.879 92.9092C364.846 97.5282 355.122 102.296 345.552 107.809L336.909 112.428C330.58 115.855 324.252 119.282 317.924 123.007L305.422 130.457L291.222 139.248L277.176 148.784L265.137 156.979L251.091 167.409L239.978 176.051L226.549 186.928L215.591 196.315C211.423 199.891 207.41 203.616 203.397 207.341L192.13 217.771C188.425 221.347 184.875 224.923 181.325 228.648C177.775 232.373 173.608 236.396 169.903 240.419L160.179 250.998L148.757 263.961L140.114 274.689C136.41 279.159 132.705 283.778 129.155 288.397C125.605 293.016 123.444 295.996 120.666 299.87C117.888 303.744 114.029 308.81 110.788 313.429C107.546 318.048 104.768 322.518 101.681 327.137C98.5941 331.756 96.4332 335.183 93.9636 339.206C91.494 343.229 86.5549 351.424 83.0048 357.533L78.22 365.876C73.1265 375.114 68.1873 384.501 62.7851 394.186C96.5952 329.809 147.451 275.215 210.188 235.949C250.955 174.999 307.799 125.627 374.879 92.9092Z" fill="#A30589"/>
<path d="M876.204 68.6223C865.708 65.0463 855.367 61.7683 845.334 58.6394L835.919 56.1064C828.973 54.1694 821.873 52.2324 814.927 50.5934L800.419 47.3154L783.44 43.7394L766.616 40.7594C761.831 40.7594 757.047 39.1204 752.107 38.5244C747.168 37.9284 740.377 36.8854 734.357 36.2894L720.466 34.6504L702.87 33.3094C697.931 33.3094 693.146 33.3094 688.207 32.4154H671.537C666.289 32.4154 661.196 32.4154 656.102 32.4154H623.998C619.059 32.4154 614.274 32.4154 608.563 33.3094L590.967 34.6504L576.921 36.2894C571.056 36.8854 565.191 37.6304 559.326 38.5244C554.386 38.5244 549.602 40.0144 544.817 40.7594L527.993 43.7394L511.477 47.1664L496.969 50.4444C490.023 52.0834 483.077 54.0204 475.977 55.9574L466.408 58.4904C456.066 61.6193 445.57 64.8973 435.538 68.4733C506.637 46.0142 582.625 42.1074 655.794 57.1493C729.026 42.1358 805.069 46.0941 876.204 68.6223Z" fill="#A30589"/>
<path d="M63.4025 936.247C68.1874 945.932 73.1265 955.319 78.8374 964.557C80.3809 967.388 82.0788 970.219 83.7766 972.901C87.1723 979.01 90.7223 985.268 94.581 991.228C98.4397 997.188 99.6745 999.274 102.453 1003.3C105.231 1007.32 108.318 1012.53 111.405 1017C114.492 1021.47 117.888 1026.09 121.283 1030.56L129.927 1042.04L140.886 1055.6L149.529 1066.32L160.951 1079.29L170.675 1089.87C174.379 1093.89 178.238 1097.76 182.097 1101.64C185.956 1105.51 189.197 1108.94 192.901 1112.51L204.169 1122.94C208.182 1126.67 212.195 1130.39 216.362 1133.97L227.321 1143.36L240.749 1154.38L251.863 1162.73L265.908 1173.31L277.947 1181.65L291.993 1191.04L306.193 1199.83L318.696 1207.28C325.024 1211 331.352 1214.43 337.681 1217.86L346.324 1222.48C355.894 1227.39 365.618 1232.16 375.65 1237.38C308.888 1204.77 252.313 1155.61 211.732 1094.93C148.529 1055.74 97.321 1000.95 63.4025 936.247Z" fill="#A30589"/>
<path d="M1006.47 130.01L994.281 122.262C988.107 118.686 981.778 115.259 975.45 111.981L966.806 107.213C957.237 102.296 947.513 97.5282 937.48 92.3133C1004.21 124.957 1060.78 174.111 1101.4 234.757C1164.22 273.97 1215.14 328.574 1248.96 392.994C1244.17 383.309 1239.23 373.923 1233.52 364.685C1231.98 361.854 1230.28 359.172 1228.74 356.49C1225.19 350.232 1221.64 344.123 1217.78 338.014C1213.92 331.905 1212.68 329.968 1210.06 326.094C1207.44 322.22 1204.04 316.707 1200.8 312.237C1197.56 307.767 1194.47 303.297 1191.23 298.827L1182.59 287.056L1171.78 273.497L1162.83 262.769L1151.56 249.806L1141.84 239.227C1138.13 235.204 1134.28 231.33 1130.42 227.456C1126.56 223.582 1123.32 220.155 1119.61 216.579L1108.34 206.149C1104.33 202.424 1100.32 198.699 1096.15 195.123L1085.19 185.885L1071.46 175.306L1060.34 166.962L1046.14 156.383C1042.28 153.552 1038.27 150.87 1034.26 148.188L1020.21 138.652C1016.04 135.672 1011.26 133.139 1006.47 130.01Z" fill="#A30589"/>
<path d="M476.44 593.101C486.452 569.949 498.591 547.709 512.712 526.647C488.006 542.194 464.993 560.116 444.027 580.138C444.308 608.658 447.67 637.072 454.06 664.919C459.332 640.394 466.821 616.363 476.44 593.101Z" fill="#A30589"/>
<path d="M476.44 736.737C466.821 713.474 459.332 689.443 454.06 664.919C447.878 692.786 444.722 721.2 444.644 749.699C465.394 769.846 488.199 787.917 512.712 803.637C498.567 782.433 486.427 760.042 476.44 736.737Z" fill="#A30589"/>
<path d="M581.552 838.205C557.585 828.683 534.547 817.115 512.712 803.637C528.817 827.487 547.382 849.702 568.123 869.942C597.646 869.867 627.08 866.821 655.948 860.853C630.509 855.425 605.614 847.847 581.552 838.205Z" fill="#A30589"/>
<path d="M730.344 838.205C706.267 847.694 681.372 855.123 655.948 860.406C684.816 866.374 714.25 869.42 743.772 869.495C764.489 849.396 783.053 827.332 799.184 803.637C777.349 817.115 754.311 828.683 730.344 838.205Z" fill="#A30589"/>
<path d="M835.456 736.737C825.469 760.042 813.329 782.433 799.184 803.637C823.89 788.09 846.902 770.169 867.869 750.147C867.715 721.651 864.56 693.245 858.454 665.366C852.955 689.757 845.26 713.638 835.456 736.737Z" fill="#A30589"/>
<path d="M835.456 593.101C845.285 616.344 852.981 640.376 858.454 664.919C864.56 637.039 867.715 608.633 867.869 580.138C846.902 560.116 823.89 542.194 799.184 526.647C813.305 547.709 825.444 569.949 835.456 593.101Z" fill="#A30589"/>
<path d="M730.344 491.632C754.327 501.297 777.366 513.016 799.184 526.647C783.045 503.004 764.481 480.99 743.772 460.938C714.254 461.087 684.828 464.133 655.948 470.027C681.353 475.117 706.247 482.346 730.344 491.632Z" fill="#A30589"/>
<path d="M581.552 491.632C605.629 482.143 630.524 474.714 655.948 469.431C627.047 463.737 597.621 460.891 568.123 460.938C547.382 481.178 528.817 503.393 512.712 527.243C534.507 513.406 557.546 501.488 581.552 491.632Z" fill="#A30589"/>
<path d="M444.027 580.138C417.965 605.495 395.398 633.99 376.885 664.919C395.494 695.864 418.165 724.36 444.336 749.699C444.515 721.19 447.774 692.776 454.06 664.919C447.67 637.072 444.308 608.658 444.027 580.138Z" fill="#A30589"/>
<path d="M444.027 749.699C444.065 785.462 448.889 821.07 458.381 855.638C494.191 864.801 531.077 869.459 568.123 869.495C547.407 849.396 528.843 827.332 512.712 803.637C487.984 787.949 464.971 769.877 444.027 749.699Z" fill="#A30589"/>
<path d="M568.123 869.495C594.372 894.759 623.891 916.644 655.948 934.608C688.005 916.644 717.524 894.759 743.772 869.495C714.25 869.42 684.816 866.374 655.948 860.406C627.08 866.374 597.646 869.42 568.123 869.495Z" fill="#A30589"/>
<path d="M743.772 869.495C780.819 869.459 817.705 864.801 853.514 855.638C863.006 821.07 867.831 785.462 867.869 749.699C846.925 769.877 823.911 787.95 799.184 803.637C783.053 827.332 764.489 849.396 743.772 869.495Z" fill="#A30589"/>
<path d="M867.869 749.699C894.04 724.36 916.711 695.864 935.319 664.919C916.711 633.973 894.04 605.477 867.869 580.138C867.715 608.633 864.56 637.039 858.454 664.919C864.56 692.798 867.715 721.204 867.869 749.699Z" fill="#A30589"/>
<path d="M799.184 526.647C823.89 542.194 846.902 560.116 867.869 580.138C867.831 544.376 863.006 508.768 853.514 474.199C817.678 465.237 780.792 460.78 743.772 460.938C764.481 480.99 783.045 503.004 799.184 526.647Z" fill="#A30589"/>
<path d="M568.123 460.938C531.077 460.975 494.191 465.632 458.381 474.795C448.942 509.171 444.118 544.575 444.027 580.138C464.993 560.116 488.006 542.194 512.712 526.647C528.851 503.004 547.415 480.99 568.123 460.938Z" fill="#A30589"/>
<path d="M743.772 460.938C717.524 435.674 688.005 413.789 655.948 395.826C623.891 413.789 594.372 435.675 568.123 460.938C597.642 461.087 627.068 464.133 655.948 470.027C684.828 464.133 714.254 461.087 743.772 460.938Z" fill="#A30589"/>
<path d="M458.381 855.638C448.889 821.07 444.065 785.462 444.027 749.699C417.965 724.342 395.398 695.847 376.885 664.919C352.373 705.764 335.302 750.366 326.413 796.783C366.619 823.497 411.248 843.4 458.381 855.638Z" fill="white"/>
<path d="M655.948 934.608C623.891 916.644 594.372 894.759 568.123 869.495C531.077 869.459 494.191 864.801 458.381 855.638C471.026 901.242 491.645 944.427 519.349 983.331C567.433 974.75 613.636 958.27 655.948 934.608Z" fill="white"/>
<path d="M853.514 855.638C817.705 864.801 780.819 869.459 743.772 869.495C717.524 894.759 688.005 916.644 655.948 934.608C698.26 958.27 744.462 974.75 792.547 983.331C820.251 944.427 840.87 901.242 853.514 855.638Z" fill="white"/>
<path d="M935.319 664.919C916.711 695.864 894.04 724.36 867.869 749.699C867.831 785.462 863.006 821.07 853.514 855.638C900.756 843.432 945.491 823.528 985.791 796.783C976.832 750.384 959.765 705.794 935.319 664.919Z" fill="white"/>
<path d="M853.514 474.199C863.006 508.768 867.831 544.376 867.869 580.138C894.04 605.477 916.711 633.973 935.319 664.919C959.765 624.044 976.832 579.453 985.791 533.054C945.491 506.31 900.756 486.406 853.514 474.199Z" fill="white"/>
<path d="M376.885 664.919C395.398 633.99 417.965 605.495 444.027 580.138C444.065 544.376 448.889 508.768 458.381 474.199C411.079 486.607 366.336 506.767 326.104 533.799C335.174 579.978 352.348 624.322 376.885 664.919Z" fill="white"/>
<path d="M458.381 474.199C494.218 465.237 531.104 460.78 568.123 460.938C594.372 435.675 623.891 413.789 655.948 395.826C613.605 372.227 567.414 355.751 519.349 347.103C491.708 385.824 471.091 428.803 458.381 474.199Z" fill="white"/>
<path d="M655.948 395.229C688.04 413.378 717.561 435.465 743.772 460.938C780.819 460.975 817.705 465.632 853.514 474.795C840.87 429.191 820.251 386.006 792.547 347.103C744.52 355.565 698.331 371.839 655.948 395.229Z" fill="white"/>
<path d="M458.381 855.638C411.14 843.432 366.405 823.528 326.104 796.783C314.848 856.171 317.325 917.227 333.359 975.583C393.81 991.061 457.057 993.453 518.577 982.586C491.224 943.858 470.87 900.934 458.381 855.638Z" fill="#A30589"/>
<path d="M655.948 934.608C613.636 958.27 567.433 974.75 519.349 983.331C554.93 1033.29 601.593 1074.98 655.948 1105.36C710.303 1074.98 756.966 1033.29 792.547 983.331C744.462 974.75 698.26 958.27 655.948 934.608Z" fill="#A30589"/>
<path d="M853.514 855.638C840.87 901.242 820.251 944.427 792.547 983.331C854.067 994.198 917.314 991.806 977.765 976.328C993.799 917.972 996.276 856.916 985.02 797.528C944.902 823.934 900.437 843.582 853.514 855.638Z" fill="#A30589"/>
<path d="M935.319 664.919C959.765 705.794 976.832 750.384 985.791 796.783C1037.55 762.435 1080.73 717.39 1112.2 664.919C1080.73 612.448 1037.55 567.402 985.791 533.054C976.832 579.453 959.765 624.044 935.319 664.919Z" fill="#A30589"/>
<path d="M376.885 664.919C352.373 624.074 335.302 579.472 326.413 533.054C274.655 567.402 231.472 612.448 200.001 664.919C231.472 717.39 274.655 762.435 326.413 796.783C335.302 750.366 352.373 705.764 376.885 664.919Z" fill="#A30589"/>
<path d="M458.381 474.199C471.026 428.595 491.645 385.41 519.349 346.507C457.829 335.64 394.582 338.031 334.13 353.51C317.981 412.103 315.504 473.425 326.876 533.054C366.926 506.361 411.399 486.457 458.381 474.199Z" fill="#A30589"/>
<path d="M655.948 395.229C698.29 371.631 744.482 355.155 792.547 346.507C756.966 296.543 710.303 254.856 655.948 224.476C601.593 254.856 554.93 296.543 519.349 346.507C567.414 355.155 613.605 371.631 655.948 395.229Z" fill="#A30589"/>
<path d="M853.514 474.199C900.806 486.635 945.544 506.793 985.791 533.799C997.381 473.951 995.008 412.362 978.846 353.51C918.395 338.031 855.147 335.64 793.627 346.507C820.951 385.482 841.203 428.663 853.514 474.199Z" fill="#A30589"/>
<path d="M655.948 1105.36C601.593 1074.98 554.93 1033.29 519.349 983.331C457.829 994.198 394.582 991.806 334.13 976.328C338.988 993.969 345.02 1011.29 352.189 1028.18C373.196 1077.84 404.082 1123.04 443.101 1161.24C498.727 1161.18 553.798 1150.55 605.167 1129.95C622.606 1122.78 639.566 1114.57 655.948 1105.36Z" fill="white"/>
<path d="M978.846 976.328C918.395 991.806 855.147 994.198 793.627 983.331C758.046 1033.29 711.383 1074.98 657.028 1105.36C673.419 1114.46 690.378 1122.57 707.809 1129.65C758.816 1150.23 813.51 1160.97 868.795 1161.24C908.008 1123.16 939.15 1078.06 960.478 1028.48C967.765 1011.5 973.901 994.077 978.846 976.328Z" fill="white"/>
<path d="M1112.2 664.919C1080.73 717.39 1037.55 762.435 985.791 796.783C997.048 856.171 994.571 917.227 978.537 975.583C1050.82 957.116 1116.79 920.574 1169.78 869.644C1169.5 816.304 1158.49 763.524 1137.36 714.238C1130.05 697.309 1121.64 680.838 1112.2 664.919Z" fill="white"/>
<path d="M333.359 976.328C317.325 917.972 314.848 856.916 326.104 797.528C274.347 763.18 231.164 718.135 199.693 665.664C190.281 681.341 181.879 697.563 174.534 714.238C153.191 763.827 142.177 816.989 142.121 870.687C181.565 908.541 228.278 938.604 279.645 959.193C297.15 966.013 315.092 971.736 333.359 976.328Z" fill="white"/>
<path d="M199.693 664.919C231.164 612.448 274.347 567.402 326.104 533.054C314.732 473.425 317.21 412.103 333.359 353.51C315.07 358.393 297.128 364.415 279.645 371.539C228.278 392.128 181.565 422.191 142.121 460.044C142.161 513.744 153.176 566.909 174.534 616.494C181.885 633.118 190.287 649.29 199.693 664.919Z" fill="white"/>
<path d="M333.359 353.51C393.81 338.031 457.057 335.64 518.577 346.507C554.159 296.543 600.821 254.856 655.176 224.476C638.786 215.374 621.826 207.263 604.395 200.189C553.004 179.657 497.948 169.027 442.329 168.899C403.067 206.937 371.918 252.042 350.646 301.658C343.738 318.566 337.964 335.886 333.359 353.51Z" fill="white"/>
<path d="M655.948 224.476C710.303 254.856 756.966 296.543 792.547 346.507C854.067 335.64 917.314 338.031 977.765 353.51C958.855 283.807 921.273 220.137 868.795 168.899C813.175 169.012 758.116 179.642 706.729 200.189C689.298 207.263 672.338 215.374 655.948 224.476Z" fill="white"/>
<path d="M978.846 353.51C994.995 412.103 997.472 473.425 986.1 533.054C1037.86 567.402 1081.04 612.448 1112.51 664.919C1121.94 649.097 1130.34 632.725 1137.67 615.898C1158.96 566.292 1169.97 513.141 1170.08 459.448C1117.1 408.518 1051.13 371.977 978.846 353.51Z" fill="white"/>
</g>
</g>
<defs>
<clipPath id="clip0_2063_28781">
<rect width="1312" height="546" fill="white"/>
</clipPath>
</defs>
</svg>
