<svg width="176" height="88" viewBox="0 0 176 88" fill="none" xmlns="http://www.w3.org/2000/svg">
<rect width="176" height="88" fill="#FFE4FC"/>
<g clip-path="url(#clip0_2063_28589)">
<path d="M93.1284 44.2924L75.1902 26.25V62.2924L93.1284 44.2924Z" fill="black"/>
<path d="M57.2521 44.2924L75.1903 26.25H39.314L57.2521 44.2924Z" fill="black"/>
<path d="M21.3334 44.2924L39.3137 62.2924V26.25L21.3334 44.2924Z" fill="black"/>
<path d="M57.2521 44.2925L39.314 62.2925H75.1903L57.2521 44.2925Z" fill="black"/>
<path d="M108.872 45.3514H102.372V51.7891H99.1218V36.7114H102.372V42.895H108.872V36.7114H112.122V51.7891H108.872V45.3514Z" fill="black"/>
<path d="M119.972 52.0853C116.722 52.0853 114.063 50.7723 114.021 47.1723H117.271C117.313 48.7817 118.242 49.7559 120.014 49.7559C121.323 49.7559 122.842 49.0782 122.842 47.5959C122.842 46.41 121.829 46.0711 120.141 45.5629L119.044 45.2664C116.68 44.5888 114.316 43.657 114.316 40.9464C114.316 37.6006 117.44 36.457 120.268 36.457C123.18 36.457 125.712 37.4735 125.755 40.8194H122.505C122.378 39.4641 121.576 38.6594 120.057 38.6594C118.833 38.6594 117.651 39.2947 117.651 40.65C117.651 41.7511 118.664 42.09 120.774 42.7676L122.04 43.1488C124.615 43.9535 126.261 44.8429 126.261 47.3841C126.219 50.7723 122.927 52.0853 119.972 52.0853Z" fill="black"/>
<path d="M128.076 36.7536H133.31C134.281 36.7112 135.294 36.7536 136.264 36.923C138.079 37.3465 139.472 38.5324 139.472 40.5653C139.472 42.5136 138.248 43.4877 136.475 43.9536C138.501 44.3347 140.021 45.3512 140.021 47.5959C140.021 51.0265 136.644 51.7889 134.027 51.7889H128.118L128.076 36.7536ZM133.31 43.0218C134.745 43.0218 136.222 42.7253 136.222 40.9889C136.222 39.4218 134.871 38.9983 133.521 38.9983H131.242V43.0218H133.31ZM133.605 49.5441C135.125 49.5441 136.602 49.2053 136.602 47.3418C136.602 45.4783 135.336 45.1394 133.774 45.1394H131.199V49.5441H133.605Z" fill="black"/>
<path d="M148.462 52.0851C143.608 52.0851 141.456 48.9934 141.456 44.3769C141.456 39.7604 143.862 36.4146 148.631 36.4146C151.628 36.4146 154.54 37.7698 154.625 41.1581H151.248C151.079 39.6334 150.066 38.871 148.631 38.871C145.677 38.871 144.79 42.0475 144.79 44.4616C144.79 46.8757 145.677 49.671 148.504 49.671C149.982 49.671 151.079 48.8663 151.29 47.3416H154.667C154.329 50.8146 151.586 52.0851 148.462 52.0851Z" fill="black"/>
</g>
<defs>
<clipPath id="clip0_2063_28589">
<rect width="133.333" height="36" fill="white" transform="translate(21.3334 26.25)"/>
</clipPath>
</defs>
</svg>
