<svg width="148" height="32" viewBox="0 0 148 32" fill="none" xmlns="http://www.w3.org/2000/svg">
<path d="M58.8529 19.7184C60.7546 15.1387 58.5744 9.88833 53.9834 7.99136C49.3924 6.09438 44.1291 8.26916 42.2274 12.8489C40.3258 17.4286 42.5059 22.679 47.0969 24.5759C51.6879 26.4729 56.9512 24.2981 58.8529 19.7184Z" fill="#FFC8F7"/>
<path d="M50.5394 22.5282C50.3146 22.6572 50.0819 22.7722 49.8428 22.8725C49.1383 23.166 48.3827 23.3182 47.6193 23.3203C48.4193 24.1177 49.4334 24.6671 50.5394 24.9025C51.6455 24.6671 52.6596 24.1177 53.4596 23.3203C52.6964 23.3198 51.9408 23.169 51.2361 22.8767C50.9969 22.775 50.7642 22.6586 50.5394 22.5282Z" fill="#292626"/>
<path d="M54.9694 20.6988C54.9028 20.9489 54.82 21.1945 54.7217 21.434C54.4283 22.1388 53.9996 22.7796 53.4596 23.3203C54.5875 23.3196 55.691 22.9923 56.636 22.3782C57.2507 21.435 57.5787 20.3346 57.5804 19.2096C56.8555 19.9251 55.9553 20.4386 54.9694 20.6988Z" fill="#292626"/>
<path d="M46.1137 20.6988C45.863 20.6324 45.6168 20.5498 45.3768 20.4517C44.672 20.1598 44.0311 19.7336 43.49 19.1969C43.4907 20.3221 43.8188 21.4228 44.4344 22.3655C45.3795 22.9797 46.4829 23.307 47.6108 23.3076C47.0722 22.7684 46.6448 22.1289 46.353 21.4255C46.2578 21.1886 46.1779 20.9459 46.1137 20.6988Z" fill="#292626"/>
<path d="M44.2798 16.284C44.1505 16.0596 44.0352 15.8275 43.9347 15.589C43.6417 14.886 43.4905 14.1323 43.49 13.371C42.6907 14.169 42.1398 15.1807 41.9039 16.284C42.1398 17.3872 42.6907 18.3989 43.49 19.1969C43.4913 18.4371 43.6424 17.6849 43.9347 16.9832C44.0351 16.7432 44.1503 16.5096 44.2798 16.284Z" fill="#292626"/>
<path d="M46.1137 11.8691C46.1803 11.619 46.2631 11.3734 46.3614 11.134C46.6533 10.4306 47.0806 9.79111 47.6193 9.25184C46.4916 9.25421 45.3887 9.58135 44.4429 10.194C43.8289 11.1373 43.5016 12.2378 43.5006 13.3625C44.0401 12.8331 44.6772 12.4127 45.3768 12.1247C45.6166 12.0237 45.8628 11.9383 46.1137 11.8691Z" fill="#292626"/>
<path d="M50.5394 10.0398C50.7643 9.91072 50.997 9.79572 51.2361 9.69544C51.9411 9.40414 52.6965 9.25344 53.4596 9.25184C52.6596 8.45448 51.6455 7.905 50.5394 7.66966C49.4334 7.905 48.4193 8.45448 47.6193 9.25184C48.3824 9.25366 49.1377 9.40435 49.8428 9.69544C50.0819 9.79572 50.3146 9.91072 50.5394 10.0398Z" fill="#292626"/>
<path d="M53.4596 9.25184C54.185 9.97654 54.7058 10.8793 54.9694 11.8691C55.9597 12.1316 56.8631 12.6496 57.5889 13.371C57.5871 12.246 57.2591 11.1456 56.6445 10.2024C55.6975 9.5847 54.5911 9.25449 53.4596 9.25184Z" fill="#292626"/>
<path d="M56.799 16.284C56.9286 16.5096 57.0438 16.7432 57.1442 16.9832C57.436 17.6865 57.5871 18.44 57.5889 19.2012C58.3882 18.4031 58.9391 17.3915 59.175 16.2882C58.9398 15.1834 58.3889 14.1702 57.5889 13.371C57.5873 14.1322 57.4362 14.8857 57.1442 15.589C57.0437 15.8275 56.9284 16.0596 56.799 16.284Z" fill="#292626"/>
<path d="M53.4596 23.3203C52.6596 24.1177 51.6455 24.6671 50.5394 24.9025C51.5433 25.1156 52.5858 25.0602 53.5612 24.7419C53.701 24.6912 53.8429 24.6384 53.9848 24.5814C54.1266 24.5244 54.2622 24.461 54.4083 24.3976C55.3238 23.9348 56.0999 23.238 56.6572 22.3782C55.7061 22.9963 54.5947 23.3237 53.4596 23.3203Z" fill="#292626"/>
<path d="M47.6193 23.3203C46.4914 23.3196 45.3879 22.9923 44.4429 22.3782C44.9997 23.2384 45.7758 23.9354 46.6918 24.3976C46.833 24.461 46.9741 24.5223 47.1153 24.5814C47.2551 24.6384 47.3969 24.6912 47.5388 24.7419C48.5143 25.0602 49.5568 25.1156 50.5606 24.9025C49.447 24.671 48.4251 24.1212 47.6193 23.3203Z" fill="#292626"/>
<path d="M43.49 19.1969C42.6907 18.3989 42.1398 17.3872 41.9039 16.284C41.6886 17.288 41.7441 18.3311 42.0648 19.3068C42.1157 19.4462 42.1686 19.5877 42.2258 19.7293C42.283 19.8708 42.3465 20.006 42.41 20.1517C42.8734 21.0654 43.5721 21.8397 44.4344 22.3951C43.8132 21.4439 43.4849 20.3321 43.49 19.1969Z" fill="#292626"/>
<path d="M43.49 13.371C43.491 12.2462 43.8183 11.1458 44.4323 10.2024C43.5716 10.7591 42.8739 11.5331 42.41 12.4458C42.3465 12.5866 42.2851 12.7274 42.2258 12.8682C42.1686 13.0077 42.1157 13.1492 42.0648 13.2907C41.7458 14.2638 41.6902 15.3037 41.9039 16.3051C42.136 15.1942 42.6871 14.1748 43.49 13.371Z" fill="#292626"/>
<path d="M47.6193 9.25184C48.4193 8.45448 49.4334 7.905 50.5394 7.66966C49.5356 7.45641 48.4931 7.5118 47.5176 7.8302C47.3779 7.8809 47.236 7.93371 47.0941 7.99286C46.9522 8.052 46.8167 8.11115 46.6706 8.17452C45.7545 8.63727 44.9777 9.3341 44.4196 10.194C45.372 9.57704 46.4837 9.24971 47.6193 9.25184Z" fill="#292626"/>
<path d="M53.4596 9.25184C54.5873 9.2536 55.6905 9.5808 56.636 10.194C56.081 9.3353 55.308 8.63854 54.3956 8.17452C54.2601 8.11115 54.1224 8.04989 53.9721 7.99286C53.8217 7.93582 53.6904 7.8809 53.5485 7.8302C52.5731 7.5119 51.5306 7.45651 50.5267 7.66966C51.6373 7.90271 52.6561 8.45235 53.4596 9.25184Z" fill="#292626"/>
<path d="M57.5889 13.371C58.3882 14.169 58.9391 15.1807 59.175 16.284C59.3887 15.2826 59.3331 14.2427 59.014 13.2696C58.9632 13.1302 58.9103 12.9886 58.851 12.8471C58.7917 12.7056 58.7324 12.5704 58.6689 12.4246C58.2049 11.5113 57.5064 10.7372 56.6445 10.1813C57.2631 11.1305 57.5912 12.2388 57.5889 13.371Z" fill="#292626"/>
<path d="M57.5889 19.1969C57.5871 20.3219 57.2591 21.4223 56.6445 22.3655C57.5057 21.8124 58.2043 21.0412 58.6689 20.1306C58.7324 19.9954 58.7938 19.8581 58.851 19.7081C58.9082 19.5582 58.9632 19.4272 59.014 19.2857C59.3331 18.3126 59.3887 17.2727 59.175 16.2713C58.9414 17.3791 58.3904 18.3954 57.5889 19.1969Z" fill="#292626"/>
<path d="M47.5176 24.7377C47.6616 24.7884 47.8035 24.8349 47.9412 24.8792L48.0682 24.9152C48.1656 24.9426 48.263 24.9701 48.3583 24.9933L48.5574 25.0398L48.784 25.0884L49.0127 25.1306C49.0804 25.1412 49.1461 25.1539 49.2244 25.1623C49.3028 25.1708 49.3854 25.1855 49.4658 25.194L49.6606 25.2172C49.739 25.2172 49.8195 25.2299 49.8999 25.2362C49.9804 25.2426 50.0333 25.2468 50.1117 25.2489H50.9905C51.0583 25.2489 51.1239 25.2489 51.1917 25.2362L51.4331 25.2172L51.6258 25.194C51.7062 25.1855 51.7867 25.175 51.8672 25.1623C51.9349 25.1623 52.0006 25.1412 52.0662 25.1306L52.297 25.0884L52.5236 25.0398L52.7227 24.9933C52.818 24.9701 52.9133 24.9426 53.0086 24.9152L53.142 24.8792C53.2838 24.8349 53.4278 24.7884 53.5655 24.7377C52.59 25.056 51.5475 25.1114 50.5437 24.8983C49.5385 25.1122 48.4944 25.0568 47.5176 24.7377Z" fill="#292626"/>
<path d="M59.014 19.3068C59.0649 19.1631 59.1115 19.0216 59.1559 18.8843C59.1686 18.8399 59.1792 18.7956 59.1919 18.7533C59.2195 18.6583 59.247 18.5611 59.2703 18.4661C59.2936 18.371 59.302 18.333 59.3169 18.2675C59.3317 18.202 59.3507 18.1175 59.3656 18.0415C59.3804 17.9654 59.3931 17.8894 59.4079 17.8112C59.4227 17.7331 59.4312 17.6802 59.4397 17.6126C59.4482 17.5451 59.463 17.4521 59.4714 17.3718C59.4799 17.2916 59.4884 17.243 59.4947 17.1796C59.5011 17.1162 59.5074 17.0191 59.5138 16.9388C59.5201 16.8585 59.5244 16.8057 59.5265 16.7381C59.5286 16.6705 59.5265 16.586 59.5265 16.51C59.5265 16.4339 59.5265 16.3685 59.5265 16.2987C59.5265 16.229 59.5265 16.1572 59.5265 16.0875C59.5265 16.0178 59.5265 15.9354 59.5265 15.8594C59.5265 15.7833 59.5265 15.7263 59.5138 15.6481C59.5011 15.57 59.5138 15.4876 59.4947 15.4094C59.4757 15.3313 59.4799 15.2806 59.4714 15.2151C59.463 15.1496 59.4524 15.0546 59.4397 14.9743C59.427 14.894 59.4185 14.8412 59.4079 14.763C59.3973 14.6849 59.3804 14.611 59.3656 14.5349C59.3507 14.4589 59.3338 14.3828 59.3169 14.3089C59.2999 14.2349 59.2872 14.1758 59.2703 14.1103C59.2533 14.0448 59.2195 13.9202 59.1919 13.823C59.1792 13.7808 59.1686 13.7364 59.1559 13.6921C59.1115 13.5505 59.0649 13.409 59.014 13.2696C59.3331 14.2427 59.3887 15.2826 59.175 16.284C59.3902 17.288 59.3347 18.3311 59.014 19.3068Z" fill="#292626"/>
<path d="M54.3956 24.3934C54.5332 24.3279 54.6666 24.2603 54.7979 24.1822L54.9165 24.1167C55.0033 24.0681 55.0901 24.0195 55.177 23.9667L55.3485 23.8611L55.5433 23.7364L55.736 23.6013L55.9012 23.4851L56.0939 23.3372L56.2464 23.2147L56.4306 23.0605L56.5809 22.9274C56.6381 22.8767 56.6932 22.8239 56.7482 22.7711L56.9028 22.6232C56.9536 22.5725 57.0023 22.5218 57.051 22.469C57.0997 22.4162 57.1569 22.3592 57.2077 22.3021C57.2586 22.2451 57.2967 22.2029 57.339 22.1522L57.4957 21.9684C57.5381 21.9177 57.5762 21.867 57.6164 21.8163C57.6567 21.7656 57.7181 21.6874 57.7668 21.622C57.8155 21.5565 57.8451 21.5142 57.8833 21.4593C57.9214 21.4044 57.9743 21.3326 58.0188 21.2671C58.0632 21.2016 58.1014 21.1382 58.1416 21.0727C58.1818 21.0072 58.2157 20.9587 58.2496 20.9016C58.2835 20.8446 58.3512 20.7284 58.3978 20.6418C58.4211 20.6017 58.4444 20.5636 58.4656 20.5235C58.5355 20.3925 58.6032 20.2595 58.6773 20.1222C58.214 21.0359 57.5153 21.8101 56.6529 22.3655C56.0944 23.2295 55.3153 23.9295 54.3956 24.3934Z" fill="#292626"/>
<path d="M42.0648 13.2696C42.014 13.4132 41.9674 13.5548 41.923 13.6921C41.9103 13.7343 41.8997 13.7766 41.887 13.8188C41.8594 13.916 41.8319 14.0131 41.8086 14.1082C41.7853 14.2033 41.7769 14.2413 41.762 14.3068C41.7472 14.3723 41.7281 14.4567 41.7133 14.5328C41.6985 14.6088 41.6858 14.6849 41.671 14.7609C41.6562 14.837 41.6477 14.894 41.6392 14.9722C41.6307 15.0503 41.6159 15.1327 41.6074 15.213C41.599 15.2933 41.5905 15.3418 41.5842 15.4073C41.5778 15.4728 41.5714 15.5657 41.5651 15.646C41.5587 15.7263 41.5651 15.7791 41.5524 15.8573C41.5397 15.9354 41.5524 16.0094 41.5524 16.0833C41.5524 16.1572 41.5524 16.2269 41.5524 16.2945C41.5524 16.3621 41.5524 16.4361 41.5524 16.5058C41.5524 16.5755 41.5524 16.6579 41.5524 16.736C41.5524 16.8142 41.5524 16.867 41.5651 16.9325C41.5778 16.9979 41.5757 17.0951 41.5842 17.1754C41.5926 17.2557 41.599 17.3021 41.6074 17.3655C41.6159 17.4289 41.6265 17.5282 41.6392 17.6084C41.6519 17.6887 41.6604 17.7415 41.671 17.807C41.6816 17.8725 41.6985 17.9612 41.7133 18.0393C41.7281 18.1175 41.7451 18.1872 41.762 18.2633C41.779 18.3393 41.7917 18.3942 41.8086 18.4618C41.8256 18.5294 41.8594 18.6519 41.887 18.747C41.8997 18.7914 41.9103 18.8357 41.923 18.8801C41.9674 19.0216 42.014 19.1653 42.0648 19.3026C41.7457 18.3295 41.6901 17.2896 41.9039 16.2882C41.6895 15.2855 41.745 14.244 42.0648 13.2696Z" fill="#292626"/>
<path d="M46.6833 8.17452C46.5457 8.24001 46.4123 8.3076 46.281 8.38576L46.1624 8.45124C46.0756 8.49983 45.9887 8.54841 45.9019 8.60122L45.7304 8.70684L45.5356 8.83147L45.3429 8.96667L45.1777 9.08285L44.985 9.23071L44.8325 9.35323L44.6483 9.50744L44.498 9.64052C44.4408 9.69121 44.3857 9.74402 44.3307 9.79683L44.1761 9.9447C44.1253 9.9954 44.0766 10.0461 44.0279 10.0989C43.9791 10.1517 43.922 10.2087 43.8712 10.2658L43.7377 10.4158L43.581 10.5995L43.4625 10.7516C43.4116 10.815 43.3608 10.8805 43.3121 10.946C43.2634 11.0115 43.2338 11.0537 43.1956 11.1086C43.1575 11.1635 43.1046 11.2354 43.0601 11.3008C43.0156 11.3663 42.9775 11.4297 42.9352 11.4952C42.8928 11.5607 42.8632 11.6093 42.8293 11.6663C42.7954 11.7233 42.7277 11.8395 42.6789 11.9261L42.6133 12.0444C42.5434 12.1754 42.4757 12.3085 42.4015 12.4458C42.8654 11.5331 43.5631 10.7591 44.4238 10.2024C44.9831 9.33831 45.763 8.63837 46.6833 8.17452Z" fill="#292626"/>
<path d="M53.5612 7.8302C53.4173 7.77951 53.2754 7.73303 53.1377 7.68867L53.0086 7.65276C52.9133 7.6253 52.8159 7.59784 52.7206 7.57461L52.5215 7.52813L52.2886 7.47744L52.0578 7.43519C51.9921 7.43519 51.9265 7.41195 51.8587 7.4035C51.7909 7.39505 51.6978 7.38027 51.6152 7.37182L51.4246 7.34858L51.1832 7.32957C51.1154 7.32957 51.0498 7.32957 50.982 7.3169H50.7533C50.6813 7.3169 50.6114 7.3169 50.5416 7.3169H50.1011C50.0333 7.3169 49.9677 7.31689 49.8893 7.32957L49.6479 7.34858L49.4552 7.37182C49.3748 7.38027 49.2943 7.39083 49.2138 7.4035C49.1461 7.4035 49.0804 7.42463 49.0148 7.43519L48.784 7.47744L48.5574 7.52602L48.3583 7.57249C48.263 7.59573 48.1677 7.62319 48.0703 7.65065L47.939 7.68656C47.7972 7.73092 47.6532 7.77739 47.5155 7.82809C48.491 7.50969 49.5335 7.4543 50.5373 7.66755C51.542 7.4547 52.5853 7.51082 53.5612 7.8302Z" fill="#292626"/>
<path d="M42.41 20.1306C42.4757 20.2679 42.5434 20.401 42.6218 20.532C42.6429 20.5721 42.6662 20.6122 42.6895 20.6503C42.7361 20.7369 42.7848 20.8256 42.8378 20.9101C42.8907 20.9946 42.9076 21.0241 42.9458 21.0812C42.9839 21.1382 43.0262 21.2121 43.0686 21.2755C43.1109 21.3389 43.1575 21.4044 43.2041 21.4677L43.3227 21.6304L43.473 21.8226L43.5916 21.9747L43.7483 22.1585L43.8817 22.3085C43.9326 22.3655 43.9855 22.4204 44.0384 22.4754C44.0914 22.5303 44.1359 22.5789 44.1867 22.6296L44.3413 22.7774C44.3963 22.8302 44.4514 22.883 44.5085 22.9337L44.6589 23.0668L44.8431 23.2231L44.9956 23.3414L45.1883 23.4914L45.3535 23.6097L45.5462 23.7428L45.741 23.8674L45.9125 23.973C45.9993 24.0258 46.0862 24.0744 46.173 24.123L46.2916 24.1885C46.4228 24.2582 46.5563 24.3258 46.6939 24.3997C45.778 23.9375 45.0018 23.2405 44.445 22.3803C43.5779 21.8246 42.8754 21.0479 42.41 20.1306Z" fill="#292626"/>
<path d="M55.3485 8.70051L55.1812 8.59066C55.0965 8.53996 55.0097 8.49138 54.9229 8.44491L54.8043 8.37731C54.673 8.3076 54.5396 8.24001 54.4019 8.16607C55.3175 8.62887 56.0935 9.32573 56.6508 10.1855C57.5127 10.7414 58.2113 11.5156 58.6752 12.4289C58.6096 12.2916 58.5418 12.1585 58.4635 12.0275C58.4423 11.9874 58.419 11.9494 58.3978 11.9113C58.3491 11.8226 58.3004 11.736 58.2475 11.6494C58.1945 11.5628 58.1776 11.5353 58.1416 11.4804C58.1056 11.4255 58.059 11.3473 58.0145 11.284C57.9701 11.2206 57.9277 11.1572 57.8833 11.0938L57.7647 10.927L57.6164 10.7347L57.4936 10.5826L57.339 10.3989L57.2056 10.2489C57.1548 10.1918 57.1019 10.1369 57.0489 10.082C56.996 10.0271 56.9515 9.9785 56.9007 9.9278L56.7461 9.77993C56.691 9.72712 56.636 9.67431 56.5788 9.62362L56.4285 9.49265L56.24 9.34267L56.0875 9.22438L55.8927 9.0744C55.8398 9.03426 55.7847 8.99624 55.7297 8.95822L55.537 8.82302C55.4798 8.78078 55.4141 8.74487 55.3485 8.70051Z" fill="#292626"/>
<path d="M48.0767 15.2658C48.214 14.9376 48.3806 14.6223 48.5743 14.3237C48.2354 14.5441 47.9196 14.7982 47.632 15.082C47.6358 15.4863 47.682 15.8892 47.7696 16.284C47.842 15.9363 47.9447 15.5956 48.0767 15.2658Z" fill="#292626"/>
<path d="M48.0767 17.3021C47.9447 16.9723 47.842 16.6316 47.7696 16.284C47.6848 16.679 47.6415 17.0819 47.6405 17.4859C47.9251 17.7715 48.238 18.0277 48.5743 18.2506C48.3803 17.95 48.2137 17.6325 48.0767 17.3021Z" fill="#292626"/>
<path d="M49.5188 18.7407C49.19 18.6057 48.8739 18.4417 48.5743 18.2506C48.7953 18.5887 49.05 18.9037 49.3345 19.1906C49.7396 19.1895 50.1434 19.1463 50.5394 19.0617C50.1904 18.9848 49.8489 18.8774 49.5188 18.7407Z" fill="#292626"/>
<path d="M51.5601 18.7407C51.2298 18.8752 50.8883 18.9805 50.5394 19.0554C50.9355 19.14 51.3393 19.1832 51.7444 19.1843C52.0286 18.8993 52.2833 18.5865 52.5046 18.2506C52.205 18.4417 51.8889 18.6057 51.5601 18.7407Z" fill="#292626"/>
<path d="M53.0022 17.3021C52.8652 17.6325 52.6986 17.95 52.5046 18.2506C52.8435 18.0302 53.1592 17.7761 53.4469 17.4922C53.4448 17.0883 53.4015 16.6855 53.3177 16.2903C53.2423 16.6361 53.1367 16.9747 53.0022 17.3021Z" fill="#292626"/>
<path d="M53.0022 15.2658C53.1371 15.5953 53.2426 15.936 53.3177 16.284C53.4015 15.8887 53.4448 15.486 53.4469 15.082C53.1592 14.7982 52.8435 14.5441 52.5046 14.3237C52.6983 14.6223 52.8648 14.9376 53.0022 15.2658Z" fill="#292626"/>
<path d="M51.5601 13.8273C51.8892 13.9643 52.2052 14.1304 52.5046 14.3237C52.2832 13.9885 52.0285 13.6764 51.7444 13.3921C51.3394 13.3942 50.9357 13.4374 50.5394 13.521C50.888 13.5931 51.2295 13.6956 51.5601 13.8273Z" fill="#292626"/>
<path d="M49.5188 13.8273C49.8491 13.6927 50.1906 13.5874 50.5394 13.5125C50.1429 13.4318 49.7392 13.3914 49.3345 13.3921C49.05 13.6791 48.7953 13.994 48.5743 14.3321C48.8733 14.136 49.1894 13.967 49.5188 13.8273Z" fill="#292626"/>
<path d="M47.632 15.082C47.2744 15.4415 46.9648 15.8455 46.7108 16.284C46.9661 16.7227 47.2772 17.1267 47.6362 17.4859C47.6387 17.0817 47.6834 16.6789 47.7696 16.284C47.682 15.8892 47.6358 15.4863 47.632 15.082Z" fill="#292626"/>
<path d="M47.632 17.4859C47.6325 17.9929 47.6987 18.4977 47.8289 18.9878C48.3202 19.1177 48.8263 19.1837 49.3345 19.1843C49.0503 18.8993 48.7956 18.5865 48.5743 18.2506C48.2351 18.0282 47.9193 17.772 47.632 17.4859Z" fill="#292626"/>
<path d="M49.3345 19.1843C49.6947 19.5424 50.0996 19.8527 50.5394 20.1074C50.9792 19.8527 51.3842 19.5424 51.7444 19.1843C51.3393 19.1832 50.9355 19.14 50.5394 19.0554C50.1434 19.14 49.7396 19.1832 49.3345 19.1843Z" fill="#292626"/>
<path d="M51.7444 19.1843C52.2526 19.1837 52.7587 19.1177 53.25 18.9878C53.3802 18.4977 53.4464 17.9929 53.4469 17.4859C53.1596 17.772 52.8438 18.0282 52.5046 18.2506C52.2833 18.5865 52.0286 18.8993 51.7444 19.1843Z" fill="#292626"/>
<path d="M53.4469 17.4859C53.8059 17.1267 54.117 16.7227 54.3723 16.284C54.117 15.8452 53.8059 15.4413 53.4469 15.082C53.4448 15.486 53.4015 15.8887 53.3177 16.284C53.4015 16.6792 53.4448 17.0819 53.4469 17.4859Z" fill="#292626"/>
<path d="M52.5046 14.3237C52.8435 14.5441 53.1592 14.7982 53.4469 15.082C53.4464 14.575 53.3802 14.0702 53.25 13.5801C52.7583 13.4531 52.2522 13.3899 51.7444 13.3921C52.0285 13.6764 52.2832 13.9885 52.5046 14.3237Z" fill="#292626"/>
<path d="M49.3345 13.3921C48.8263 13.3926 48.3202 13.4587 47.8289 13.5886C47.6994 14.0759 47.6332 14.5778 47.632 15.082C47.9196 14.7982 48.2354 14.5441 48.5743 14.3237C48.7957 13.9885 49.0504 13.6764 49.3345 13.3921Z" fill="#292626"/>
<path d="M51.7444 13.3921C51.3842 13.0339 50.9792 12.7237 50.5394 12.469C50.0996 12.7237 49.6947 13.0339 49.3345 13.3921C49.7395 13.3942 50.1432 13.4374 50.5394 13.521C50.9357 13.4374 51.3394 13.3942 51.7444 13.3921Z" fill="#292626"/>
<path d="M47.8289 18.9878C47.6987 18.4977 47.6325 17.9929 47.632 17.4859C47.2744 17.1264 46.9648 16.7224 46.7108 16.284C46.3746 16.863 46.1403 17.4954 46.0184 18.1534C46.57 18.5321 47.1823 18.8143 47.8289 18.9878Z" fill="#FFC8F7"/>
<path d="M50.5394 20.1074C50.0996 19.8527 49.6947 19.5424 49.3345 19.1843C48.8263 19.1837 48.3202 19.1177 47.8289 18.9878C48.0024 19.6343 48.2853 20.2466 48.6654 20.7981C49.3251 20.6765 49.959 20.4428 50.5394 20.1074Z" fill="#FFC8F7"/>
<path d="M53.25 18.9878C52.7587 19.1177 52.2526 19.1837 51.7444 19.1843C51.3842 19.5424 50.9792 19.8527 50.5394 20.1074C51.1199 20.4428 51.7538 20.6765 52.4135 20.7981C52.7936 20.2466 53.0765 19.6343 53.25 18.9878Z" fill="#FFC8F7"/>
<path d="M54.3723 16.284C54.117 16.7227 53.8059 17.1267 53.4469 17.4859C53.4464 17.9929 53.3802 18.4977 53.25 18.9878C53.8981 18.8148 54.5118 18.5326 55.0647 18.1534C54.9418 17.4956 54.7077 16.8635 54.3723 16.284Z" fill="#FFC8F7"/>
<path d="M53.25 13.5801C53.3802 14.0702 53.4464 14.575 53.4469 15.082C53.8059 15.4413 54.117 15.8452 54.3723 16.284C54.7077 15.7045 54.9418 15.0723 55.0647 14.4145C54.5118 14.0353 53.8981 13.7532 53.25 13.5801Z" fill="#FFC8F7"/>
<path d="M46.7108 16.284C46.9648 15.8455 47.2744 15.4415 47.632 15.082C47.6325 14.575 47.6987 14.0702 47.8289 13.5801C47.18 13.756 46.5661 14.0418 46.0142 14.4251C46.1386 15.0797 46.3742 15.7084 46.7108 16.284Z" fill="#FFC8F7"/>
<path d="M47.8289 13.5801C48.3206 13.4531 48.8266 13.3899 49.3345 13.3921C49.6947 13.0339 50.0996 12.7237 50.5394 12.469C49.9585 12.1344 49.3248 11.9009 48.6654 11.7782C48.2862 12.3272 48.0033 12.9365 47.8289 13.5801Z" fill="#FFC8F7"/>
<path d="M50.5394 12.4605C50.9797 12.7178 51.3847 13.031 51.7444 13.3921C52.2526 13.3926 52.7587 13.4587 53.25 13.5886C53.0765 12.942 52.7936 12.3298 52.4135 11.7782C51.7546 11.8982 51.1209 12.1289 50.5394 12.4605Z" fill="#FFC8F7"/>
<path d="M47.8289 18.9878C47.1808 18.8148 46.5671 18.5326 46.0142 18.1534C45.8597 18.9954 45.8937 19.861 46.1137 20.6883C46.943 20.9077 47.8108 20.9416 48.6548 20.7876C48.2795 20.2385 48.0003 19.63 47.8289 18.9878Z" fill="#292626"/>
<path d="M50.5394 20.1074C49.959 20.4428 49.3251 20.6765 48.6654 20.7981C49.1535 21.5065 49.7937 22.0975 50.5394 22.5282C51.2852 22.0975 51.9254 21.5065 52.4135 20.7981C51.7538 20.6765 51.1199 20.4428 50.5394 20.1074Z" fill="#292626"/>
<path d="M53.25 18.9878C53.0765 19.6343 52.7936 20.2466 52.4135 20.7981C53.2575 20.9522 54.1253 20.9183 54.9546 20.6988C55.1746 19.8715 55.2086 19.0059 55.0542 18.164C54.5038 18.5383 53.8937 18.8169 53.25 18.9878Z" fill="#292626"/>
<path d="M54.3723 16.284C54.7077 16.8635 54.9418 17.4956 55.0647 18.1534C55.7748 17.6665 56.3673 17.0278 56.799 16.284C56.3673 15.5401 55.7748 14.9015 55.0647 14.4145C54.9418 15.0723 54.7077 15.7045 54.3723 16.284Z" fill="#292626"/>
<path d="M46.7108 16.284C46.3746 15.7049 46.1403 15.0726 46.0184 14.4145C45.3083 14.9015 44.7159 15.5401 44.2841 16.284C44.7159 17.0278 45.3083 17.6665 46.0184 18.1534C46.1403 17.4954 46.3746 16.863 46.7108 16.284Z" fill="#292626"/>
<path d="M47.8289 13.5801C48.0024 12.9336 48.2853 12.3213 48.6654 11.7698C47.8214 11.6157 46.9536 11.6496 46.1243 11.8691C45.9027 12.6998 45.8687 13.5691 46.0247 14.4145C46.5742 14.0361 47.1844 13.7539 47.8289 13.5801Z" fill="#292626"/>
<path d="M50.5394 12.4605C51.1204 12.126 51.7541 11.8924 52.4135 11.7698C51.9254 11.0615 51.2852 10.4705 50.5394 10.0398C49.7937 10.4705 49.1535 11.0615 48.6654 11.7698C49.3248 11.8924 49.9585 12.126 50.5394 12.4605Z" fill="#292626"/>
<path d="M53.25 13.5801C53.8988 13.7564 54.5126 14.0422 55.0647 14.4251C55.2237 13.5766 55.1912 12.7034 54.9694 11.8691C54.1401 11.6496 53.2724 11.6157 52.4283 11.7698C52.8032 12.3224 53.0811 12.9345 53.25 13.5801Z" fill="#292626"/>
<path d="M50.5394 22.5282C49.7937 22.0975 49.1535 21.5065 48.6654 20.7981C47.8214 20.9522 46.9536 20.9183 46.1243 20.6988C46.1909 20.9489 46.2737 21.1945 46.372 21.434C46.6602 22.138 47.084 22.7789 47.6193 23.3203C48.3825 23.3195 49.138 23.1688 49.8428 22.8767C50.082 22.7751 50.3147 22.6586 50.5394 22.5282Z" fill="#FFC8F7"/>
<path d="M54.9694 20.6988C54.1401 20.9183 53.2724 20.9522 52.4283 20.7981C51.9402 21.5065 51.3 22.0975 50.5543 22.5282C50.7791 22.6572 51.0118 22.7722 51.251 22.8725C51.9508 23.1643 52.7011 23.3165 53.4596 23.3203C53.9976 22.7805 54.4248 22.1412 54.7175 21.4382C54.8174 21.1974 54.9016 20.9505 54.9694 20.6988Z" fill="#FFC8F7"/>
<path d="M56.799 16.284C56.3673 17.0278 55.7748 17.6665 55.0647 18.1534C55.2192 18.9954 55.1852 19.861 54.9652 20.6883C55.9569 20.4265 56.8619 19.9084 57.5889 19.1864C57.5852 18.4302 57.4341 17.6819 57.1442 16.9832C57.0438 16.7432 56.9286 16.5096 56.799 16.284Z" fill="#FFC8F7"/>
<path d="M46.1137 20.6988C45.8937 19.8715 45.8597 19.0059 46.0142 18.164C45.3041 17.677 44.7116 17.0384 44.2798 16.2945C44.1507 16.5168 44.0354 16.7468 43.9347 16.9832C43.6419 17.6862 43.4908 18.4399 43.49 19.2012C44.0311 19.7378 44.672 20.164 45.3768 20.4559C45.6169 20.5526 45.8631 20.6337 46.1137 20.6988Z" fill="#FFC8F7"/>
<path d="M44.2798 16.284C44.7116 15.5401 45.3041 14.9015 46.0142 14.4145C45.8581 13.5691 45.8921 12.6998 46.1137 11.8691C45.8628 11.9383 45.6166 12.0237 45.3768 12.1247C44.672 12.4166 44.0311 12.8428 43.49 13.3794C43.4905 14.1407 43.6417 14.8945 43.9347 15.5974C44.0355 15.8331 44.1508 16.0624 44.2798 16.284Z" fill="#FFC8F7"/>
<path d="M46.1137 11.8691C46.943 11.6496 47.8108 11.6157 48.6548 11.7698C49.1429 11.0615 49.7831 10.4705 50.5289 10.0398C50.304 9.91072 50.0713 9.79572 49.8322 9.69544C49.1271 9.40435 48.3718 9.25366 47.6087 9.25184C47.07 9.79111 46.6427 10.4306 46.3509 11.134C46.2561 11.3737 46.1769 11.6192 46.1137 11.8691Z" fill="#FFC8F7"/>
<path d="M50.5394 10.0398C51.2852 10.4705 51.9254 11.0615 52.4135 11.7698C53.2575 11.6157 54.1253 11.6496 54.9546 11.8691C54.6952 10.8809 54.1796 9.97825 53.4596 9.25184C52.6965 9.25344 51.9411 9.40414 51.2361 9.69544C50.997 9.79572 50.7643 9.91072 50.5394 10.0398Z" fill="#FFC8F7"/>
<path d="M54.9694 11.8691C55.191 12.6998 55.225 13.5691 55.069 14.4145C55.7791 14.9015 56.3715 15.5401 56.8033 16.284C56.9326 16.0596 57.0479 15.8275 57.1484 15.589C57.4405 14.8857 57.5915 14.1322 57.5931 13.371C56.8662 12.6489 55.9612 12.1309 54.9694 11.8691Z" fill="#FFC8F7"/>
<path d="M63.8165 22.7837V10.5445H71.3699V12.258H65.7049V15.7899H70.9153V17.5034H65.7049V22.7837H63.8165ZM72.5832 22.7837V10.5445H74.4715V21.0702H80.3638V22.7837H72.5832ZM85.6922 23.0285C84.1885 23.0285 82.9937 22.6088 82.1078 21.7696C81.222 20.9187 80.779 19.6948 80.779 18.0978V15.2304C80.779 13.6335 81.222 12.4154 82.1078 11.5761C82.9937 10.7252 84.1885 10.2997 85.6922 10.2997C87.1958 10.2997 88.3906 10.7252 89.2765 11.5761C90.174 12.4154 90.6228 13.6335 90.6228 15.2304V18.0978C90.6228 19.6948 90.174 20.9187 89.2765 21.7696C88.3906 22.6088 87.1958 23.0285 85.6922 23.0285ZM85.6922 21.3325C86.6596 21.3325 87.4056 21.0527 87.9302 20.4932C88.4547 19.9221 88.717 19.1469 88.717 18.1678V15.1604C88.717 14.1813 88.4547 13.412 87.9302 12.8525C87.4056 12.2813 86.6596 11.9957 85.6922 11.9957C84.748 11.9957 84.0078 12.2813 83.4716 12.8525C82.9354 13.412 82.6673 14.1813 82.6673 15.1604V18.1678C82.6673 19.1469 82.9354 19.9221 83.4716 20.4932C84.0078 21.0527 84.748 21.3325 85.6922 21.3325ZM93.2158 22.7837L91.4149 10.5445H93.3032L94.7719 21.5073H95.0517L96.94 10.5445H100.245L102.133 21.5073H102.413L103.864 10.5445H105.752L103.951 22.7837H100.647L98.7234 11.6635H98.4437L96.5378 22.7837H93.2158Z" fill="white"/>
</svg>
