<svg width="148" height="32" viewBox="0 0 148 32" fill="none" xmlns="http://www.w3.org/2000/svg">
<path d="M71.2764 23V10.7608H78.8297V12.4743H73.1647V16.0062H78.3751V17.7197H73.1647V23H71.2764ZM80.043 23V10.7608H81.9314V21.2865H87.8236V23H80.043ZM93.152 23.2448C91.6483 23.2448 90.4536 22.8252 89.5677 21.9859C88.6818 21.135 88.2388 19.9111 88.2388 18.3141V15.4467C88.2388 13.8498 88.6818 12.6317 89.5677 11.7924C90.4536 10.9415 91.6483 10.516 93.152 10.516C94.6557 10.516 95.8504 10.9415 96.7363 11.7924C97.6339 12.6317 98.0826 13.8498 98.0826 15.4467V18.3141C98.0826 19.9111 97.6339 21.135 96.7363 21.9859C95.8504 22.8252 94.6557 23.2448 93.152 23.2448ZM93.152 21.5488C94.1195 21.5488 94.8655 21.269 95.39 20.7095C95.9146 20.1384 96.1768 19.3632 96.1768 18.3841V15.3767C96.1768 14.3976 95.9146 13.6283 95.39 13.0688C94.8655 12.4976 94.1195 12.212 93.152 12.212C92.2078 12.212 91.4677 12.4976 90.9315 13.0688C90.3953 13.6283 90.1272 14.3976 90.1272 15.3767V18.3841C90.1272 19.3632 90.3953 20.1384 90.9315 20.7095C91.4677 21.269 92.2078 21.5488 93.152 21.5488ZM100.676 23L98.8747 10.7608H100.763L102.232 21.7236H102.511L104.4 10.7608H107.704L109.593 21.7236H109.872L111.324 10.7608H113.212L111.411 23H108.107L106.183 11.8798H105.903L103.998 23H100.676Z" fill="black"/>
<path d="M63.3129 20.4126C65.2145 15.8329 63.0344 10.5825 58.4434 8.68557C53.8524 6.78859 48.589 8.96337 46.6874 13.5431C44.7857 18.1228 46.9659 23.3732 51.5569 25.2702C56.1479 27.1671 61.4112 24.9924 63.3129 20.4126Z" fill="#A30589"/>
<path d="M54.9994 23.2224C54.7745 23.3514 54.5419 23.4664 54.3027 23.5667C53.5983 23.8602 52.8427 24.0124 52.0792 24.0145C52.8792 24.8119 53.8934 25.3614 54.9994 25.5967C56.1054 25.3614 57.1196 24.8119 57.9196 24.0145C57.1564 24.014 56.4008 23.8632 55.6961 23.5709C55.4568 23.4693 55.2242 23.3529 54.9994 23.2224Z" fill="#FF9DED"/>
<path d="M59.4294 21.3931C59.3628 21.6432 59.28 21.8887 59.1816 22.1282C58.8883 22.833 58.4595 23.4738 57.9196 24.0145C59.0475 24.0138 60.1509 23.6866 61.096 23.0724C61.7106 22.1292 62.0386 21.0288 62.0404 19.9038C61.3155 20.6193 60.4153 21.1328 59.4294 21.3931Z" fill="#FF9DED"/>
<path d="M50.5736 21.3931C50.3229 21.3266 50.0768 21.244 49.8367 21.1459C49.132 20.854 48.4911 20.4278 47.9499 19.8912C47.9506 21.0163 48.2787 22.117 48.8944 23.0597C49.8394 23.6739 50.9429 24.0012 52.0708 24.0018C51.5321 23.4626 51.1048 22.8231 50.8129 22.1197C50.7178 21.8828 50.6379 21.6401 50.5736 21.3931Z" fill="#FF9DED"/>
<path d="M48.7398 16.9782C48.6105 16.7539 48.4952 16.5218 48.3946 16.2832C48.1016 15.5802 47.9505 14.8265 47.9499 14.0652C47.1506 14.8632 46.5998 15.8749 46.3639 16.9782C46.5998 18.0815 47.1506 19.0931 47.9499 19.8912C47.9513 19.1313 48.1024 18.3791 48.3946 17.6774C48.495 17.4374 48.6103 17.2039 48.7398 16.9782Z" fill="#FF9DED"/>
<path d="M50.5736 12.5633C50.6403 12.3132 50.723 12.0676 50.8214 11.8282C51.1132 11.1248 51.5406 10.4853 52.0792 9.94605C50.9516 9.94842 49.8486 10.2756 48.9029 10.8882C48.2888 11.8315 47.9616 12.932 47.9605 14.0567C48.5001 13.5273 49.1372 13.107 49.8367 12.8189C50.0766 12.7179 50.3227 12.6325 50.5736 12.5633Z" fill="#FF9DED"/>
<path d="M54.9994 10.734C55.2243 10.6049 55.4569 10.4899 55.6961 10.3897C56.4011 10.0984 57.1565 9.94765 57.9196 9.94605C57.1196 9.14869 56.1054 8.59922 54.9994 8.36388C53.8934 8.59922 52.8792 9.14869 52.0792 9.94605C52.8423 9.94787 53.5977 10.0986 54.3027 10.3897C54.5419 10.4899 54.7745 10.6049 54.9994 10.734Z" fill="#FF9DED"/>
<path d="M57.9196 9.94605C58.6449 10.6708 59.1657 11.5736 59.4294 12.5633C60.4196 12.8258 61.3231 13.3438 62.0489 14.0652C62.0471 12.9402 61.7191 11.8398 61.1044 10.8966C60.1574 10.2789 59.051 9.9487 57.9196 9.94605Z" fill="#FF9DED"/>
<path d="M61.259 16.9782C61.3885 17.2039 61.5038 17.4374 61.6042 17.6774C61.896 18.3807 62.047 19.1342 62.0489 19.8954C62.8482 19.0973 63.399 18.0857 63.6349 16.9824C63.3998 15.8776 62.8489 14.8644 62.0489 14.0652C62.0473 14.8264 61.8962 15.5799 61.6042 16.2832C61.5036 16.5218 61.3884 16.7539 61.259 16.9782Z" fill="#FF9DED"/>
<path d="M57.9196 24.0145C57.1196 24.8119 56.1054 25.3614 54.9994 25.5967C56.0033 25.8098 57.0457 25.7545 58.0212 25.4362C58.161 25.3855 58.3028 25.3326 58.4447 25.2756C58.5866 25.2186 58.7221 25.1552 58.8682 25.0918C59.7838 24.629 60.5598 23.9322 61.1171 23.0724C60.166 23.6905 59.0547 24.0179 57.9196 24.0145Z" fill="#FF9DED"/>
<path d="M52.0792 24.0145C50.9514 24.0138 49.8479 23.6866 48.9029 23.0724C49.4596 23.9326 50.2358 24.6296 51.1517 25.0918C51.2929 25.1552 51.4341 25.2165 51.5753 25.2756C51.715 25.3326 51.8569 25.3855 51.9988 25.4362C52.9742 25.7545 54.0167 25.8098 55.0206 25.5967C53.907 25.3652 52.885 24.8154 52.0792 24.0145Z" fill="#FF9DED"/>
<path d="M47.9499 19.8912C47.1506 19.0931 46.5998 18.0815 46.3639 16.9782C46.1486 17.9822 46.2041 19.0253 46.5248 20.001C46.5756 20.1404 46.6286 20.2819 46.6857 20.4235C46.7429 20.565 46.8064 20.7002 46.87 20.8459C47.3333 21.7596 48.032 22.5339 48.8944 23.0893C48.2732 22.1382 47.9449 21.0263 47.9499 19.8912Z" fill="#FF9DED"/>
<path d="M47.9499 14.0652C47.951 12.9404 48.2782 11.84 48.8923 10.8966C48.0315 11.4533 47.3338 12.2273 46.87 13.14C46.8064 13.2808 46.745 13.4216 46.6857 13.5625C46.6286 13.7019 46.5756 13.8434 46.5248 13.9849C46.2057 14.958 46.1502 15.9979 46.3639 16.9993C46.596 15.8885 47.1471 14.869 47.9499 14.0652Z" fill="#FF9DED"/>
<path d="M52.0792 9.94605C52.8792 9.14869 53.8934 8.59922 54.9994 8.36388C53.9956 8.15063 52.9531 8.20601 51.9776 8.52442C51.8378 8.57512 51.696 8.62792 51.5541 8.68707C51.4122 8.74622 51.2767 8.80536 51.1306 8.86874C50.2144 9.33148 49.4377 10.0283 48.8796 10.8882C49.832 10.2713 50.9437 9.94393 52.0792 9.94605Z" fill="#FF9DED"/>
<path d="M57.9196 9.94605C59.0473 9.94782 60.1504 10.275 61.096 10.8882C60.541 10.0295 59.768 9.33276 58.8555 8.86874C58.72 8.80536 58.5824 8.74411 58.432 8.68707C58.2817 8.63004 58.1504 8.57512 58.0085 8.52442C57.033 8.20611 55.9905 8.15073 54.9867 8.36388C56.0973 8.59693 57.1161 9.14656 57.9196 9.94605Z" fill="#FF9DED"/>
<path d="M62.0489 14.0652C62.8482 14.8632 63.399 15.8749 63.6349 16.9782C63.8486 15.9768 63.7931 14.9369 63.474 13.9638C63.4232 13.8244 63.3702 13.6829 63.311 13.5413C63.2517 13.3998 63.1924 13.2646 63.1288 13.1189C62.6649 12.2056 61.9663 11.4314 61.1044 10.8755C61.723 11.8247 62.0512 12.933 62.0489 14.0652Z" fill="#FF9DED"/>
<path d="M62.0489 19.8912C62.0471 21.0161 61.7191 22.1165 61.1044 23.0597C61.9657 22.5067 62.6643 21.7354 63.1288 20.8248C63.1924 20.6896 63.2538 20.5523 63.311 20.4023C63.3681 20.2524 63.4232 20.1214 63.474 19.9799C63.7931 19.0068 63.8486 17.9669 63.6349 16.9655C63.4013 18.0733 62.8503 19.0897 62.0489 19.8912Z" fill="#FF9DED"/>
<path d="M51.9776 25.4319C52.1216 25.4826 52.2635 25.5291 52.4011 25.5735L52.5282 25.6094C52.6256 25.6368 52.723 25.6643 52.8183 25.6875L53.0173 25.734L53.2439 25.7826L53.4726 25.8248C53.5404 25.8354 53.606 25.8481 53.6844 25.8565C53.7627 25.865 53.8453 25.8798 53.9258 25.8882L54.1206 25.9114C54.199 25.9114 54.2794 25.9241 54.3599 25.9305C54.4404 25.9368 54.4933 25.941 54.5717 25.9431H55.4505C55.5182 25.9431 55.5839 25.9431 55.6516 25.9305L55.893 25.9114L56.0857 25.8882C56.1662 25.8798 56.2467 25.8692 56.3271 25.8565C56.3949 25.8565 56.4605 25.8354 56.5262 25.8248L56.757 25.7826L56.9836 25.734L57.1826 25.6875C57.2779 25.6643 57.3732 25.6368 57.4685 25.6094L57.6019 25.5735C57.7438 25.5291 57.8878 25.4826 58.0254 25.4319C57.05 25.7502 56.0075 25.8056 55.0036 25.5925C53.9984 25.8064 52.9544 25.751 51.9776 25.4319Z" fill="#FF9DED"/>
<path d="M63.474 20.001C63.5248 19.8574 63.5714 19.7158 63.6159 19.5785C63.6286 19.5342 63.6392 19.4898 63.6519 19.4475C63.6794 19.3525 63.7069 19.2553 63.7302 19.1603C63.7535 19.0652 63.762 19.0272 63.7768 18.9617C63.7916 18.8962 63.8107 18.8117 63.8255 18.7357C63.8404 18.6596 63.8531 18.5836 63.8679 18.5054C63.8827 18.4273 63.8912 18.3745 63.8996 18.3069C63.9081 18.2393 63.9229 18.1463 63.9314 18.0661C63.9399 17.9858 63.9483 17.9372 63.9547 17.8738C63.9611 17.8105 63.9674 17.7133 63.9738 17.633C63.9801 17.5527 63.9843 17.4999 63.9865 17.4323C63.9886 17.3647 63.9865 17.2802 63.9865 17.2042C63.9865 17.1282 63.9865 17.0627 63.9865 16.993C63.9865 16.9233 63.9865 16.8514 63.9865 16.7817C63.9865 16.712 63.9865 16.6296 63.9865 16.5536C63.9865 16.4775 63.9865 16.4205 63.9738 16.3423C63.9611 16.2642 63.9738 16.1818 63.9547 16.1036C63.9356 16.0255 63.9399 15.9748 63.9314 15.9093C63.9229 15.8438 63.9123 15.7488 63.8996 15.6685C63.8869 15.5882 63.8785 15.5354 63.8679 15.4573C63.8573 15.3791 63.8404 15.3052 63.8255 15.2291C63.8107 15.1531 63.7938 15.077 63.7768 15.0031C63.7599 14.9292 63.7472 14.87 63.7302 14.8045C63.7133 14.739 63.6794 14.6144 63.6519 14.5172C63.6392 14.475 63.6286 14.4306 63.6159 14.3863C63.5714 14.2448 63.5248 14.1032 63.474 13.9638C63.7931 14.9369 63.8486 15.9768 63.6349 16.9782C63.8501 17.9823 63.7946 19.0253 63.474 20.001Z" fill="#FF9DED"/>
<path d="M58.8555 25.0876C58.9932 25.0221 59.1266 24.9545 59.2579 24.8764L59.3765 24.8109C59.4633 24.7623 59.5501 24.7137 59.6369 24.6609L59.8085 24.5553L60.0033 24.4307L60.196 24.2955L60.3611 24.1793L60.5538 24.0314L60.7063 23.9089L60.8905 23.7547L61.0409 23.6216C61.0981 23.5709 61.1531 23.5181 61.2082 23.4653L61.3628 23.3174C61.4136 23.2667 61.4623 23.216 61.511 23.1632C61.5597 23.1104 61.6169 23.0534 61.6677 22.9964C61.7185 22.9393 61.7566 22.8971 61.799 22.8464L61.9557 22.6626C61.998 22.6119 62.0362 22.5612 62.0764 22.5105C62.1166 22.4598 62.178 22.3816 62.2267 22.3162C62.2754 22.2507 62.3051 22.2084 62.3432 22.1535C62.3813 22.0986 62.4343 22.0268 62.4787 21.9613C62.5232 21.8958 62.5613 21.8324 62.6016 21.7669C62.6418 21.7015 62.6757 21.6529 62.7096 21.5958C62.7434 21.5388 62.8112 21.4226 62.8578 21.336C62.8811 21.2959 62.9044 21.2579 62.9256 21.2177C62.9954 21.0868 63.0632 20.9537 63.1373 20.8164C62.674 21.7301 61.9753 22.5043 61.1129 23.0597C60.5544 23.9237 59.7752 24.6237 58.8555 25.0876Z" fill="#FF9DED"/>
<path d="M46.5248 13.9638C46.474 14.1074 46.4274 14.249 46.3829 14.3863C46.3702 14.4285 46.3596 14.4708 46.3469 14.513C46.3194 14.6102 46.2919 14.7074 46.2686 14.8024C46.2453 14.8975 46.2368 14.9355 46.222 15.001C46.2072 15.0665 46.1881 15.151 46.1733 15.227C46.1585 15.3031 46.1458 15.3791 46.1309 15.4551C46.1161 15.5312 46.1076 15.5882 46.0992 15.6664C46.0907 15.7445 46.0759 15.8269 46.0674 15.9072C46.0589 15.9875 46.0505 16.0361 46.0441 16.1015C46.0378 16.167 46.0314 16.26 46.0251 16.3402C46.0187 16.4205 46.0251 16.4733 46.0123 16.5515C45.9996 16.6296 46.0123 16.7036 46.0123 16.7775C46.0123 16.8514 46.0123 16.9211 46.0123 16.9887C46.0123 17.0563 46.0123 17.1303 46.0123 17.2C46.0123 17.2697 46.0123 17.3521 46.0123 17.4302C46.0123 17.5084 46.0123 17.5612 46.0251 17.6267C46.0378 17.6922 46.0356 17.7893 46.0441 17.8696C46.0526 17.9499 46.0589 17.9963 46.0674 18.0597C46.0759 18.1231 46.0865 18.2224 46.0992 18.3026C46.1119 18.3829 46.1203 18.4357 46.1309 18.5012C46.1415 18.5667 46.1585 18.6554 46.1733 18.7336C46.1881 18.8117 46.2051 18.8814 46.222 18.9575C46.2389 19.0335 46.2516 19.0884 46.2686 19.156C46.2855 19.2236 46.3194 19.3462 46.3469 19.4412C46.3596 19.4856 46.3702 19.5299 46.3829 19.5743C46.4274 19.7158 46.474 19.8595 46.5248 19.9968C46.2056 19.0237 46.1501 17.9838 46.3639 16.9824C46.1494 15.9797 46.205 14.9382 46.5248 13.9638Z" fill="#FF9DED"/>
<path d="M51.1433 8.86874C51.0056 8.93422 50.8722 9.00182 50.7409 9.07997L50.6223 9.14546C50.5355 9.19404 50.4487 9.24263 50.3619 9.29544L50.1904 9.40106L49.9955 9.52569L49.8028 9.66088L49.6377 9.77706L49.445 9.92493L49.2925 10.0474L49.1083 10.2016L48.9579 10.3347C48.9007 10.3854 48.8457 10.4382 48.7906 10.491L48.636 10.6389C48.5852 10.6896 48.5365 10.7403 48.4878 10.7931C48.4391 10.8459 48.3819 10.903 48.3311 10.96L48.1977 11.11L48.041 11.2938L47.9224 11.4458C47.8716 11.5092 47.8208 11.5747 47.7721 11.6402C47.7234 11.7057 47.6937 11.7479 47.6556 11.8028C47.6175 11.8578 47.5645 11.9296 47.5201 11.9951C47.4756 12.0605 47.4375 12.1239 47.3951 12.1894C47.3528 12.2549 47.3231 12.3035 47.2893 12.3605C47.2554 12.4175 47.1876 12.5337 47.1389 12.6203L47.0733 12.7386C47.0034 12.8696 46.9356 13.0027 46.8615 13.14C47.3254 12.2273 48.0231 11.4533 48.8838 10.8966C49.4431 10.0325 50.223 9.33258 51.1433 8.86874Z" fill="#FF9DED"/>
<path d="M58.0212 8.52442C57.8772 8.47372 57.7353 8.42725 57.5977 8.38289L57.4685 8.34698C57.3732 8.31952 57.2758 8.29206 57.1805 8.26882L56.9815 8.22235L56.7485 8.17165L56.5177 8.1294C56.4521 8.1294 56.3864 8.10617 56.3187 8.09772C56.2509 8.08927 56.1577 8.07448 56.0751 8.06603L55.8846 8.04279L55.6432 8.02378C55.5754 8.02378 55.5097 8.02378 55.442 8.01111H55.2133C55.1413 8.01111 55.0714 8.01111 55.0015 8.01111H54.5611C54.4933 8.01111 54.4277 8.01111 54.3493 8.02378L54.1079 8.04279L53.9152 8.06603C53.8347 8.07448 53.7543 8.08504 53.6738 8.09772C53.606 8.09772 53.5404 8.11884 53.4747 8.1294L53.2439 8.17165L53.0173 8.22023L52.8183 8.26671C52.723 8.28994 52.6277 8.3174 52.5303 8.34487L52.399 8.38078C52.2571 8.42514 52.1131 8.47161 51.9755 8.52231C52.9509 8.2039 53.9935 8.14851 54.9973 8.36176C56.002 8.14892 57.0453 8.20503 58.0212 8.52442Z" fill="#FF9DED"/>
<path d="M46.87 20.8248C46.9356 20.9621 47.0034 21.0952 47.0817 21.2262C47.1029 21.2663 47.1262 21.3064 47.1495 21.3445C47.1961 21.4311 47.2448 21.5198 47.2977 21.6043C47.3507 21.6888 47.3676 21.7184 47.4057 21.7754C47.4438 21.8324 47.4862 21.9064 47.5285 21.9697C47.5709 22.0331 47.6175 22.0986 47.6641 22.162L47.7827 22.3246L47.933 22.5168L48.0516 22.6689L48.2083 22.8527L48.3417 23.0027C48.3925 23.0597 48.4455 23.1146 48.4984 23.1696C48.5513 23.2245 48.5958 23.2731 48.6466 23.3238L48.8012 23.4716C48.8563 23.5244 48.9113 23.5773 48.9685 23.628L49.1189 23.761L49.3031 23.9174L49.4556 24.0356L49.6483 24.1856L49.8134 24.3039L50.0061 24.437L50.2009 24.5616L50.3725 24.6672C50.4593 24.7201 50.5461 24.7686 50.6329 24.8172L50.7515 24.8827C50.8828 24.9524 51.0162 25.02 51.1539 25.094C50.2379 24.6317 49.4617 23.9348 48.905 23.0745C48.0379 22.5188 47.3353 21.7422 46.87 20.8248Z" fill="#FF9DED"/>
<path d="M59.8085 9.39472L59.6412 9.28488C59.5565 9.23418 59.4696 9.18559 59.3828 9.13912L59.2642 9.07153C59.1329 9.00182 58.9995 8.93422 58.8619 8.86029C59.7774 9.32308 60.5535 10.0199 61.1108 10.8797C61.9727 11.4357 62.6713 12.2098 63.1352 13.1231C63.0695 12.9858 63.0018 12.8527 62.9234 12.7217C62.9023 12.6816 62.879 12.6436 62.8578 12.6055C62.8091 12.5168 62.7604 12.4302 62.7074 12.3436C62.6545 12.257 62.6376 12.2295 62.6016 12.1746C62.5656 12.1197 62.519 12.0415 62.4745 11.9782C62.43 11.9148 62.3877 11.8514 62.3432 11.788L62.2246 11.6212L62.0764 11.4289L61.9536 11.2769L61.799 11.0931L61.6656 10.9431C61.6148 10.8861 61.5618 10.8311 61.5089 10.7762C61.4559 10.7213 61.4115 10.6727 61.3607 10.622L61.2061 10.4741C61.151 10.4213 61.096 10.3685 61.0388 10.3178L60.8884 10.1869L60.7 10.0369L60.5475 9.91859L60.3527 9.76861C60.2997 9.72848 60.2447 9.69045 60.1896 9.65243L59.9969 9.51724C59.9397 9.47499 59.8741 9.43908 59.8085 9.39472Z" fill="#FF9DED"/>
<path d="M52.5366 15.96C52.674 15.6318 52.8406 15.3165 53.0343 15.0179C52.6953 15.2383 52.3796 15.4924 52.092 15.7762C52.0958 16.1806 52.1419 16.5834 52.2296 16.9782C52.3019 16.6305 52.4047 16.2898 52.5366 15.96Z" fill="#FF9DED"/>
<path d="M52.5366 17.9963C52.4047 17.6666 52.3019 17.3259 52.2296 16.9782C52.1448 17.3733 52.1015 17.7761 52.1004 18.1801C52.3851 18.4657 52.698 18.7219 53.0343 18.9448C52.8402 18.6442 52.6737 18.3267 52.5366 17.9963Z" fill="#FF9DED"/>
<path d="M53.9787 19.4349C53.6499 19.2999 53.3338 19.1359 53.0343 18.9448C53.2552 19.2829 53.5099 19.5979 53.7945 19.8848C54.1995 19.8837 54.6034 19.8406 54.9994 19.756C54.6504 19.679 54.3089 19.5716 53.9787 19.4349Z" fill="#FF9DED"/>
<path d="M56.0201 19.4349C55.6898 19.5694 55.3482 19.6747 54.9994 19.7496C55.3955 19.8342 55.7993 19.8774 56.2043 19.8785C56.4885 19.5935 56.7432 19.2807 56.9645 18.9448C56.665 19.1359 56.3489 19.2999 56.0201 19.4349Z" fill="#FF9DED"/>
<path d="M57.4622 17.9963C57.3251 18.3267 57.1586 18.6442 56.9645 18.9448C57.3035 18.7244 57.6192 18.4703 57.9069 18.1865C57.9047 17.7825 57.8615 17.3798 57.7777 16.9845C57.7022 17.3303 57.5967 17.6689 57.4622 17.9963Z" fill="#FF9DED"/>
<path d="M57.4622 15.96C57.597 16.2895 57.7026 16.6302 57.7777 16.9782C57.8615 16.5829 57.9047 16.1802 57.9069 15.7762C57.6192 15.4924 57.3035 15.2383 56.9645 15.0179C57.1583 15.3165 57.3248 15.6318 57.4622 15.96Z" fill="#FF9DED"/>
<path d="M56.0201 14.5215C56.3491 14.6585 56.6652 14.8246 56.9645 15.0179C56.7431 14.6827 56.4884 14.3706 56.2043 14.0863C55.7993 14.0884 55.3956 14.1316 54.9994 14.2152C55.3479 14.2873 55.6895 14.3898 56.0201 14.5215Z" fill="#FF9DED"/>
<path d="M53.9787 14.5215C54.3091 14.3869 54.6506 14.2816 54.9994 14.2067C54.6029 14.126 54.1992 14.0857 53.7945 14.0863C53.5099 14.3733 53.2552 14.6882 53.0343 15.0263C53.3333 14.8302 53.6494 14.6612 53.9787 14.5215Z" fill="#FF9DED"/>
<path d="M52.092 15.7762C51.7344 16.1357 51.4248 16.5397 51.1708 16.9782C51.4261 17.4169 51.7371 17.8209 52.0962 18.1801C52.0986 17.7759 52.1434 17.3731 52.2296 16.9782C52.1419 16.5834 52.0958 16.1806 52.092 15.7762Z" fill="#FF9DED"/>
<path d="M52.092 18.1801C52.0925 18.6871 52.1587 19.1919 52.2889 19.682C52.7802 19.8119 53.2862 19.878 53.7945 19.8785C53.5103 19.5935 53.2556 19.2807 53.0343 18.9448C52.695 18.7224 52.3793 18.4662 52.092 18.1801Z" fill="#FF9DED"/>
<path d="M53.7945 19.8785C54.1546 20.2366 54.5596 20.5469 54.9994 20.8016C55.4392 20.5469 55.8442 20.2366 56.2043 19.8785C55.7993 19.8774 55.3955 19.8342 54.9994 19.7496C54.6034 19.8342 54.1995 19.8774 53.7945 19.8785Z" fill="#FF9DED"/>
<path d="M56.2043 19.8785C56.7126 19.878 57.2186 19.8119 57.7099 19.682C57.8401 19.1919 57.9063 18.6871 57.9069 18.1801C57.6195 18.4662 57.3038 18.7224 56.9645 18.9448C56.7432 19.2807 56.4885 19.5935 56.2043 19.8785Z" fill="#FF9DED"/>
<path d="M57.9069 18.1801C58.2659 17.8209 58.5769 17.4169 58.8322 16.9782C58.5769 16.5395 58.2659 16.1355 57.9069 15.7762C57.9047 16.1802 57.8615 16.5829 57.7777 16.9782C57.8615 17.3734 57.9047 17.7761 57.9069 18.1801Z" fill="#FF9DED"/>
<path d="M56.9645 15.0179C57.3035 15.2383 57.6192 15.4924 57.9069 15.7762C57.9063 15.2692 57.8401 14.7644 57.7099 14.2743C57.2183 14.1473 56.7122 14.0841 56.2043 14.0863C56.4884 14.3706 56.7431 14.6827 56.9645 15.0179Z" fill="#FF9DED"/>
<path d="M53.7945 14.0863C53.2862 14.0868 52.7802 14.1529 52.2889 14.2828C52.1594 14.7701 52.0932 15.2721 52.092 15.7762C52.3796 15.4924 52.6953 15.2383 53.0343 15.0179C53.2557 14.6827 53.5104 14.3706 53.7945 14.0863Z" fill="#FF9DED"/>
<path d="M56.2043 14.0863C55.8442 13.7282 55.4392 13.4179 54.9994 13.1632C54.5596 13.4179 54.1546 13.7282 53.7945 14.0863C54.1995 14.0884 54.6032 14.1316 54.9994 14.2152C55.3956 14.1316 55.7993 14.0884 56.2043 14.0863Z" fill="#FF9DED"/>
<path d="M52.2889 19.682C52.1587 19.1919 52.0925 18.6871 52.092 18.1801C51.7344 17.8206 51.4248 17.4167 51.1708 16.9782C50.8345 17.5572 50.6003 18.1896 50.4783 18.8476C51.03 19.2264 51.6422 19.5085 52.2889 19.682Z" fill="#A30589"/>
<path d="M54.9994 20.8016C54.5596 20.5469 54.1546 20.2366 53.7945 19.8785C53.2862 19.878 52.7802 19.8119 52.2889 19.682C52.4624 20.3286 52.7453 20.9408 53.1253 21.4923C53.785 21.3707 54.4189 21.137 54.9994 20.8016Z" fill="#A30589"/>
<path d="M57.7099 19.682C57.2186 19.8119 56.7126 19.878 56.2043 19.8785C55.8442 20.2366 55.4392 20.5469 54.9994 20.8016C55.5799 21.137 56.2138 21.3707 56.8735 21.4923C57.2536 20.9408 57.5364 20.3286 57.7099 19.682Z" fill="#A30589"/>
<path d="M58.8322 16.9782C58.5769 17.4169 58.2659 17.8209 57.9069 18.1801C57.9063 18.6871 57.8401 19.1919 57.7099 19.682C58.3581 19.509 58.9718 19.2268 59.5247 18.8476C59.4018 18.1898 59.1676 17.5577 58.8322 16.9782Z" fill="#A30589"/>
<path d="M57.7099 14.2743C57.8401 14.7644 57.9063 15.2692 57.9069 15.7762C58.2659 16.1355 58.5769 16.5395 58.8322 16.9782C59.1676 16.3987 59.4018 15.7665 59.5247 15.1087C58.9718 14.7296 58.3581 14.4474 57.7099 14.2743Z" fill="#A30589"/>
<path d="M51.1708 16.9782C51.4248 16.5397 51.7344 16.1357 52.092 15.7762C52.0925 15.2692 52.1587 14.7644 52.2889 14.2743C51.6399 14.4502 51.0261 14.736 50.4741 15.1193C50.5985 15.774 50.8342 16.4026 51.1708 16.9782Z" fill="#A30589"/>
<path d="M52.2889 14.2743C52.7806 14.1473 53.2866 14.0841 53.7945 14.0863C54.1546 13.7282 54.5596 13.4179 54.9994 13.1632C54.4185 12.8287 53.7848 12.5951 53.1253 12.4725C52.7461 13.0214 52.4633 13.6307 52.2889 14.2743Z" fill="#A30589"/>
<path d="M54.9994 13.1548C55.4397 13.4121 55.8447 13.7252 56.2043 14.0863C56.7126 14.0868 57.2186 14.1529 57.7099 14.2828C57.5364 13.6362 57.2536 13.024 56.8735 12.4725C56.2146 12.5924 55.5809 12.8232 54.9994 13.1548Z" fill="#A30589"/>
<path d="M52.2889 19.682C51.6408 19.509 51.027 19.2268 50.4741 18.8476C50.3197 19.6896 50.3537 20.5552 50.5736 21.3825C51.403 21.6019 52.2707 21.6358 53.1148 21.4818C52.7395 20.9327 52.4602 20.3242 52.2889 19.682Z" fill="#FF9DED"/>
<path d="M54.9994 20.8016C54.4189 21.137 53.785 21.3707 53.1253 21.4923C53.6135 22.2007 54.2537 22.7917 54.9994 23.2224C55.7451 22.7917 56.3853 22.2007 56.8735 21.4923C56.2138 21.3707 55.5799 21.137 54.9994 20.8016Z" fill="#FF9DED"/>
<path d="M57.7099 19.682C57.5364 20.3286 57.2536 20.9408 56.8735 21.4923C57.7175 21.6464 58.5852 21.6125 59.4146 21.3931C59.6346 20.5657 59.6685 19.7001 59.5141 18.8582C58.9637 19.2326 58.3537 19.5111 57.7099 19.682Z" fill="#FF9DED"/>
<path d="M58.8322 16.9782C59.1676 17.5577 59.4018 18.1898 59.5247 18.8476C60.2348 18.3607 60.8272 17.7221 61.259 16.9782C60.8272 16.2343 60.2348 15.5957 59.5247 15.1087C59.4018 15.7665 59.1676 16.3987 58.8322 16.9782Z" fill="#FF9DED"/>
<path d="M51.1708 16.9782C50.8345 16.3991 50.6003 15.7668 50.4783 15.1087C49.7683 15.5957 49.1758 16.2343 48.744 16.9782C49.1758 17.7221 49.7683 18.3607 50.4783 18.8476C50.6003 18.1896 50.8345 17.5572 51.1708 16.9782Z" fill="#FF9DED"/>
<path d="M52.2889 14.2743C52.4624 13.6278 52.7452 13.0156 53.1253 12.464C52.2813 12.31 51.4136 12.3439 50.5842 12.5633C50.3627 13.394 50.3287 14.2633 50.4847 15.1087C51.0342 14.7303 51.6443 14.4481 52.2889 14.2743Z" fill="#FF9DED"/>
<path d="M54.9994 13.1548C55.5803 12.8202 56.214 12.5866 56.8735 12.464C56.3853 11.7557 55.7451 11.1647 54.9994 10.734C54.2537 11.1647 53.6135 11.7557 53.1253 12.464C53.7848 12.5866 54.4185 12.8202 54.9994 13.1548Z" fill="#FF9DED"/>
<path d="M57.7099 14.2743C58.3587 14.4506 58.9725 14.7364 59.5247 15.1193C59.6837 14.2708 59.6511 13.3976 59.4294 12.5633C58.6 12.3439 57.7323 12.31 56.8883 12.464C57.2632 13.0166 57.541 13.6287 57.7099 14.2743Z" fill="#FF9DED"/>
<path d="M54.9994 23.2224C54.2537 22.7917 53.6135 22.2007 53.1253 21.4923C52.2813 21.6464 51.4136 21.6125 50.5842 21.3931C50.6509 21.6432 50.7336 21.8887 50.832 22.1282C51.1202 22.8322 51.5439 23.4731 52.0792 24.0145C52.8424 24.0137 53.598 23.863 54.3027 23.5709C54.542 23.4693 54.7746 23.3529 54.9994 23.2224Z" fill="#A30589"/>
<path d="M59.4294 21.3931C58.6 21.6125 57.7323 21.6464 56.8883 21.4923C56.4001 22.2007 55.76 22.7917 55.0142 23.2224C55.2391 23.3514 55.4718 23.4664 55.7109 23.5667C56.4107 23.8585 57.1611 24.0107 57.9196 24.0145C58.4575 23.4747 58.8848 22.8354 59.1774 22.1324C59.2774 21.8917 59.3616 21.6447 59.4294 21.3931Z" fill="#A30589"/>
<path d="M61.259 16.9782C60.8272 17.7221 60.2348 18.3607 59.5247 18.8476C59.6791 19.6896 59.6452 20.5552 59.4252 21.3825C60.4169 21.1207 61.3219 20.6026 62.0489 19.8806C62.0451 19.1244 61.8941 18.3761 61.6042 17.6774C61.5038 17.4374 61.3885 17.2039 61.259 16.9782Z" fill="#A30589"/>
<path d="M50.5736 21.3931C50.3537 20.5657 50.3197 19.7001 50.4741 18.8582C49.764 18.3712 49.1716 17.7326 48.7398 16.9887C48.6107 17.211 48.4954 17.441 48.3946 17.6774C48.1018 18.3804 47.9507 19.1341 47.9499 19.8954C48.4911 20.432 49.132 20.8582 49.8367 21.1501C50.0769 21.2468 50.323 21.328 50.5736 21.3931Z" fill="#A30589"/>
<path d="M48.7398 16.9782C49.1716 16.2343 49.764 15.5957 50.4741 15.1087C50.3181 14.2633 50.3521 13.394 50.5736 12.5633C50.3227 12.6325 50.0766 12.7179 49.8367 12.8189C49.132 13.1108 48.4911 13.537 47.9499 14.0736C47.9505 14.835 48.1016 15.5887 48.3946 16.2916C48.4955 16.5273 48.6108 16.7566 48.7398 16.9782Z" fill="#A30589"/>
<path d="M50.5736 12.5633C51.403 12.3439 52.2707 12.31 53.1148 12.464C53.6029 11.7557 54.2431 11.1647 54.9888 10.734C54.764 10.6049 54.5313 10.4899 54.2921 10.3897C53.5871 10.0986 52.8317 9.94787 52.0687 9.94605C51.53 10.4853 51.1027 11.1248 50.8108 11.8282C50.716 12.0679 50.6368 12.3134 50.5736 12.5633Z" fill="#A30589"/>
<path d="M54.9994 10.734C55.7451 11.1647 56.3853 11.7557 56.8735 12.464C57.7175 12.31 58.5852 12.3439 59.4146 12.5633C59.1551 11.5751 58.6395 10.6725 57.9196 9.94605C57.1565 9.94765 56.4011 10.0984 55.6961 10.3897C55.4569 10.4899 55.2243 10.6049 54.9994 10.734Z" fill="#A30589"/>
<path d="M59.4294 12.5633C59.651 13.394 59.685 14.2633 59.5289 15.1087C60.239 15.5957 60.8315 16.2343 61.2632 16.9782C61.3926 16.7539 61.5079 16.5218 61.6084 16.2832C61.9004 15.5799 62.0515 14.8264 62.0531 14.0652C61.3261 13.3432 60.4211 12.8251 59.4294 12.5633Z" fill="#A30589"/>
</svg>
