<svg width="176" height="88" viewBox="0 0 176 88" fill="none" xmlns="http://www.w3.org/2000/svg">
<rect width="176" height="88" fill="#FFE4FC"/>
<g clip-path="url(#clip0_2063_28465)">
<path d="M128.482 52.9786C126.243 53.0108 125.052 51.5866 125.052 49.06C125.052 48.8911 125.06 48.7301 125.068 48.5692H133.861C134.038 47.9014 134.15 47.1772 134.15 46.5093C134.15 43.4276 132.258 41.0781 128.393 41.0781C124.44 41.0781 120.929 44.9725 120.929 49.06C120.929 52.9786 123.49 55.3603 127.757 55.3603C129.649 55.3603 131.509 54.7247 132.814 53.735L132.001 51.6992C130.978 52.4797 129.73 52.9464 128.482 52.9786ZM128.45 43.2747C129.754 43.2747 130.422 44.1196 130.422 45.9783C130.422 46.1553 130.414 46.3404 130.39 46.5335H125.374C125.929 44.5782 127.089 43.2747 128.45 43.2747Z" fill="black"/>
<path d="M93.6725 40.2008C93.6725 37.0064 91.1763 34.681 87.3919 34.681H80.0725L74.5488 55.006H79.1707L81.2079 47.5149H85.2178C89.8075 47.5149 93.6725 44.5538 93.6725 40.2008ZM83.4383 45.1332H81.852L84.0422 37.0627H85.709C87.8106 37.0627 88.9942 38.4869 88.9942 40.3697C88.9942 43.3952 86.6189 45.1332 83.4383 45.1332Z" fill="black"/>
<path d="M99.6876 41.4481L100.203 39.5572C100.461 38.5675 100.903 36.8858 101.507 34.9386C102.143 32.935 103.311 31.6878 104.881 31.6878C105.638 31.6878 106.105 32.0338 106.105 32.6132C106.073 33.2488 105.549 33.627 105.549 34.6489C105.549 35.8398 106.564 36.7651 107.877 36.7651C109.503 36.7651 110.807 35.4616 110.807 33.8604C110.807 31.3901 108.69 29.7648 105.461 29.7648C100.726 29.7648 97.6182 32.7822 95.6696 39.8388L87.7705 68.5723H92.2475L99.0756 43.685H103.73L100.67 55.0062H105.147L108.811 41.4481H99.6876Z" fill="black"/>
<path d="M122.354 41.4479H110.493L109.914 43.6848H115.655L106.749 55.006H119.302L119.882 52.7691H113.424L122.354 41.4479Z" fill="black"/>
<path d="M145.834 41.2147C144.231 41.2147 142.524 42.2526 141.188 44.401L141.969 41.448H137.492L133.828 55.0061H138.305L139.964 48.907C140.632 46.4126 142.259 43.9665 143.338 43.9665C144.497 43.9665 144.062 46.1471 146.067 46.1471C147.517 46.1471 148.394 44.8114 148.394 43.5883C148.386 42.1722 147.251 41.2147 145.834 41.2147Z" fill="black"/>
<path d="M32.8071 42.1481C36.2292 40.8848 42.0589 40.5629 49.7889 41.448L52.0676 32.8384C43.2587 31.6315 34.0069 32.5246 31.8489 35.6225C30.8988 37.0145 30.6492 39.9273 32.8071 42.1481ZM66.7707 40.756C63.3486 42.0193 57.5189 42.3412 49.7889 41.4561L47.5102 50.0657C56.3191 51.2726 65.571 50.3795 67.7289 47.2816C68.6791 45.8816 68.9287 42.9688 66.7707 40.756ZM69.8144 43.7895L71.2074 38.5996C71.7147 36.765 71.9643 35.8156 71.9643 35.0512C71.9643 28.4049 54.5316 20.2942 37.9282 19.2803L35.5851 27.8899C52.6957 29.0969 70.1928 37.3927 69.7419 43.7895H69.8144ZM29.7634 39.1065L28.3704 44.2964C27.8631 46.131 27.6135 47.0805 27.6135 47.8449C27.6135 54.4911 45.0462 62.6019 61.6496 63.6157L63.9928 55.0061C46.8741 53.7992 29.385 45.5034 29.8278 39.1065H29.7634Z" fill="black"/>
</g>
<defs>
<clipPath id="clip0_2063_28465">
<rect width="121.256" height="50" fill="white" transform="translate(27.3721 18.9263)"/>
</clipPath>
</defs>
</svg>
