<svg width="176" height="88" viewBox="0 0 176 88" fill="none" xmlns="http://www.w3.org/2000/svg">
<rect width="176" height="88" fill="#5B004B"/>
<g clip-path="url(#clip0_2063_28507)">
<path d="M128.482 52.9786C126.244 53.0108 125.052 51.5866 125.052 49.06C125.052 48.8911 125.06 48.7301 125.068 48.5692H133.861C134.038 47.9014 134.151 47.1772 134.151 46.5093C134.151 43.4276 132.258 41.0781 128.393 41.0781C124.44 41.0781 120.929 44.9725 120.929 49.06C120.929 52.9786 123.49 55.3603 127.757 55.3603C129.65 55.3603 131.51 54.7247 132.814 53.735L132.001 51.6992C130.978 52.4797 129.73 52.9464 128.482 52.9786ZM128.45 43.2747C129.754 43.2747 130.423 44.1196 130.423 45.9783C130.423 46.1553 130.415 46.3404 130.39 46.5335H125.374C125.93 44.5782 127.089 43.2747 128.45 43.2747Z" fill="white"/>
<path d="M93.673 40.2008C93.673 37.0064 91.1768 34.681 87.3924 34.681H80.073L74.5493 55.006H79.1712L81.2084 47.5149H85.2183C89.808 47.5149 93.673 44.5538 93.673 40.2008ZM83.4388 45.1332H81.8525L84.0427 37.0627H85.7095C87.8111 37.0627 88.9947 38.4869 88.9947 40.3697C88.9947 43.3952 86.6194 45.1332 83.4388 45.1332Z" fill="white"/>
<path d="M99.6878 41.4481L100.203 39.5572C100.461 38.5675 100.904 36.8858 101.508 34.9386C102.144 32.935 103.311 31.6878 104.881 31.6878C105.638 31.6878 106.105 32.0338 106.105 32.6132C106.073 33.2488 105.55 33.627 105.55 34.6489C105.55 35.8398 106.564 36.7651 107.877 36.7651C109.503 36.7651 110.808 35.4616 110.808 33.8604C110.808 31.3901 108.69 29.7648 105.461 29.7648C100.727 29.7648 97.6184 32.7822 95.6698 39.8388L87.7708 68.5723H92.2477L99.0759 43.685H103.73L100.67 55.0062H105.147L108.811 41.4481H99.6878Z" fill="white"/>
<path d="M122.354 41.4479H110.494L109.914 43.6848H115.655L106.75 55.006H119.303L119.882 52.7691H113.425L122.354 41.4479Z" fill="white"/>
<path d="M145.834 41.2147C144.232 41.2147 142.525 42.2526 141.188 44.401L141.969 41.448H137.492L133.829 55.0061H138.306L139.964 48.907C140.633 46.4126 142.259 43.9665 143.338 43.9665C144.498 43.9665 144.063 46.1471 146.068 46.1471C147.517 46.1471 148.395 44.8114 148.395 43.5883C148.387 42.1722 147.251 41.2147 145.834 41.2147Z" fill="white"/>
<path d="M32.8074 42.1481C36.2295 40.8848 42.0592 40.5629 49.7892 41.448L52.0679 32.8384C43.2589 31.6315 34.0071 32.5246 31.8492 35.6225C30.899 37.0145 30.6494 39.9273 32.8074 42.1481ZM66.771 40.756C63.3488 42.0193 57.5191 42.3412 49.7892 41.4561L47.5104 50.0657C56.3194 51.2726 65.5712 50.3795 67.7292 47.2816C68.6793 45.8816 68.9289 42.9688 66.771 40.756ZM69.8146 43.7895L71.2077 38.5996C71.7149 36.765 71.9645 35.8156 71.9645 35.0512C71.9645 28.4049 54.5318 20.2942 37.9285 19.2803L35.5853 27.8899C52.696 29.0969 70.1931 37.3927 69.7422 43.7895H69.8146ZM29.7637 39.1065L28.3707 44.2964C27.8634 46.131 27.6138 47.0805 27.6138 47.8449C27.6138 54.4911 45.0465 62.6019 61.6498 63.6157L63.993 55.0061C46.8743 53.7992 29.3852 45.5034 29.8281 39.1065H29.7637Z" fill="white"/>
</g>
<defs>
<clipPath id="clip0_2063_28507">
<rect width="121.256" height="50" fill="white" transform="translate(27.3721 18.9263)"/>
</clipPath>
</defs>
</svg>
