<svg width="176" height="88" viewBox="0 0 176 88" fill="none" xmlns="http://www.w3.org/2000/svg">
<rect width="176" height="88" fill="#5B004B"/>
<g clip-path="url(#clip0_2063_28594)">
<path fill-rule="evenodd" clip-rule="evenodd" d="M81.3611 27.0125C79.9483 28.3625 79.9483 30.6125 81.3611 32.0187C82.774 33.425 85.0911 33.425 86.4475 32.0187C87.8604 30.6687 87.8604 28.3625 86.4475 27.0125C85.0911 25.6625 82.774 25.6625 81.3611 27.0125ZM109.393 36.35L106.115 36.8562C99.898 38.2625 95.829 40.2875 95.829 47.0375V60.5938L101.48 61.7188V47.9375C101.48 44.7875 103.289 43.325 106.115 42.8188L109.393 42.2V36.35ZM66.2151 60.7062L71.8666 61.8312V46.475C71.8666 39.1063 66.1021 36.4625 62.0896 36.4625C59.3768 36.4625 57.2858 37.1375 55.3643 38.9938C53.3863 37.1375 51.0126 36.4062 49.0911 36.4062C46.3219 36.4062 43.9483 37.5875 42.3658 39.5V36.9125L36.7144 38.0375V60.7062L42.3658 61.8312V46.25C42.3658 43.775 44.1743 42.0312 46.9436 42.0312C49.6563 42.0312 51.4647 43.775 51.4647 46.25V60.7062L57.1162 61.8312V46.25C57.1162 43.775 58.9247 42.0312 61.6374 42.0312C64.3501 42.0312 66.1586 43.775 66.1586 46.25V60.7062H66.2151ZM139.571 49.175C139.571 56.2625 133.75 62 126.63 62C119.452 62 113.631 56.2625 113.631 49.175C113.631 42.1438 119.452 36.4062 126.63 36.4062C133.75 36.4062 139.571 42.1438 139.571 49.175ZM126.63 56.6562C122.504 56.6562 119.113 53.3375 119.113 49.175C119.113 45.0688 122.504 41.75 126.63 41.75C130.755 41.75 134.09 45.0688 134.09 49.175C134.146 53.3375 130.812 56.6562 126.63 56.6562ZM86.7301 62L81.0786 60.7062V37.8688L86.7301 36.7438V62Z" fill="white"/>
</g>
<defs>
<clipPath id="clip0_2063_28594">
<rect width="102.857" height="36" fill="white" transform="translate(36.7144 26)"/>
</clipPath>
</defs>
</svg>
