<svg width="176" height="88" viewBox="0 0 176 88" fill="none" xmlns="http://www.w3.org/2000/svg">
<rect width="176" height="88" fill="#FFE4FC"/>
<g clip-path="url(#clip0_2063_28466)">
<path fill-rule="evenodd" clip-rule="evenodd" d="M81.2183 27.2625C79.8054 28.6125 79.8054 30.8625 81.2183 32.2687C82.6312 33.675 84.9483 33.675 86.3047 32.2687C87.7175 30.9187 87.7175 28.6125 86.3047 27.2625C84.9483 25.9125 82.6312 25.9125 81.2183 27.2625ZM109.25 36.6L105.972 37.1062C99.7552 38.5125 95.6861 40.5375 95.6861 47.2875V60.8438L101.338 61.9688V48.1875C101.338 45.0375 103.146 43.575 105.972 43.0688L109.25 42.45V36.6ZM66.0723 60.9562L71.7238 62.0812V46.725C71.7238 39.3563 65.9593 36.7125 61.9467 36.7125C59.234 36.7125 57.143 37.3875 55.2215 39.2438C53.2434 37.3875 50.8698 36.6562 48.9483 36.6562C46.1791 36.6562 43.8054 37.8375 42.223 39.75V37.1625L36.5715 38.2875V60.9562L42.223 62.0812V46.5C42.223 44.025 44.0315 42.2812 46.8007 42.2812C49.5134 42.2812 51.3219 44.025 51.3219 46.5V60.9562L56.9734 62.0812V46.5C56.9734 44.025 58.7819 42.2812 61.4946 42.2812C64.2073 42.2812 66.0158 44.025 66.0158 46.5V60.9562H66.0723ZM139.429 49.425C139.429 56.5125 133.608 62.25 126.487 62.25C119.309 62.25 113.488 56.5125 113.488 49.425C113.488 42.3938 119.309 36.6562 126.487 36.6562C133.608 36.6562 139.429 42.3938 139.429 49.425ZM126.487 56.9062C122.361 56.9062 118.97 53.5875 118.97 49.425C118.97 45.3188 122.361 42 126.487 42C130.612 42 133.947 45.3188 133.947 49.425C134.003 53.5875 130.669 56.9062 126.487 56.9062ZM86.5872 62.25L80.9357 60.9562V38.1188L86.5872 36.9938V62.25Z" fill="black"/>
</g>
<defs>
<clipPath id="clip0_2063_28466">
<rect width="102.857" height="36" fill="white" transform="translate(36.5715 26.25)"/>
</clipPath>
</defs>
</svg>
