<svg width="176" height="88" viewBox="0 0 176 88" fill="none" xmlns="http://www.w3.org/2000/svg">
<rect width="176" height="88" fill="#5B004B"/>
<g clip-path="url(#clip0_2063_28505)">
<path d="M151.395 45.2569L153.749 39.1093L156.089 45.2569H151.395ZM156.185 35.6257H151.313L144.498 52.2924H148.727L150.273 48.2213H157.225L158.785 52.2924H163.014L156.185 35.6257ZM121.781 49.3962C119.03 49.3962 116.8 46.9235 116.8 43.8634C116.8 40.8033 119.03 38.3306 121.781 38.3306C124.532 38.3306 126.762 40.817 126.762 43.8634C126.762 46.9099 124.532 49.3962 121.781 49.3962ZM121.781 35.0519C116.909 35.0519 112.968 39 112.968 43.8634C112.968 48.7268 116.923 52.6612 121.795 52.6612C126.667 52.6612 130.608 48.7131 130.608 43.8634C130.594 39 126.653 35.0519 121.781 35.0519ZM86.9668 49.3962C84.2161 49.3962 81.9855 46.9235 81.9855 43.8634C81.9855 40.8033 84.2161 38.3306 86.9668 38.3306C89.7175 38.3306 91.9481 40.817 91.9481 43.8634C91.9481 46.9099 89.7175 49.3962 86.9668 49.3962ZM86.9668 35.0519C82.095 35.0519 78.1537 39 78.1537 43.8634C78.1537 48.7268 82.1087 52.6612 86.9805 52.6612C91.8523 52.6612 95.7935 48.7131 95.7935 43.8634C95.7935 39 91.8386 35.0519 86.9668 35.0519ZM108.767 35.6257L104.442 42.3743L100.118 35.6257H95.903L102.595 46.0765V52.2924H106.317V46.0765L113.009 35.6257H108.767ZM145.374 35.6257H131.101V38.8224H136.383V52.2924H140.105V38.8224H145.374V35.6257ZM63.0867 38.8224H68.3827V52.2924H72.105V38.8224H77.3737V35.6257H63.0867V38.8224Z" fill="white"/>
<path d="M29.3671 44.3552C29.3671 44.1913 29.3671 44.041 29.3671 43.8907C25.029 43.2486 21.9225 41.4863 21.9225 39.4235C21.9225 39.3279 21.9225 39.2322 21.9362 39.1503C20.8277 40.4754 20.1982 42.0191 20.1982 43.6585C20.1982 48.3443 25.3438 52.1831 31.8988 52.5929C30.4345 51.459 29.3671 48.194 29.3671 44.3552Z" fill="white"/>
<path d="M33.0346 37.9891C32.0493 37.9891 31.2145 39.5055 30.8861 41.6503C31.5704 41.7186 32.2956 41.7459 33.0346 41.7459C33.7736 41.7459 34.4989 41.7049 35.1832 41.6503C34.8547 39.5191 34.0199 37.9891 33.0346 37.9891Z" fill="white"/>
<path d="M29.5724 41.5C30.0787 38.1393 31.4335 35.7213 33.0483 35.7213C34.6495 35.7213 36.0179 38.1393 36.5106 41.5C39.5623 41.0218 41.6972 39.9426 41.6972 38.6858C41.6972 36.9918 37.8243 35.612 33.0483 35.612C28.2723 35.612 24.3995 36.9918 24.3995 38.6858C24.3858 39.9426 26.5206 41.0218 29.5724 41.5Z" fill="white"/>
<path d="M13 24V64H53.0693V24H13ZM33.0347 53.7131C24.7279 53.7131 18.0087 49.3689 18.0087 44.0137C18.0087 40.2022 21.4025 36.9098 26.3565 35.3251C28.2176 34.724 30.5303 34.3689 33.0347 34.3689C35.539 34.3689 37.8518 34.724 39.7129 35.3251C44.6531 36.9098 48.0607 40.2158 48.0607 44.0137C48.0607 49.3689 41.3414 53.7131 33.0347 53.7131Z" fill="white"/>
<path d="M33.0347 44.1502C32.2409 44.1502 31.4746 44.1093 30.7219 44.041C30.7767 47.1011 31.7893 49.5328 33.0347 49.5328C34.28 49.5328 35.279 47.1011 35.3474 44.041C34.5948 44.1093 33.8284 44.1502 33.0347 44.1502Z" fill="white"/>
<path d="M44.1468 39.4235C44.1468 41.4863 41.0404 43.2486 36.7022 43.8907C36.7022 44.041 36.7022 44.2049 36.7022 44.3552C36.7022 48.194 35.6348 51.459 34.1569 52.5792C40.7119 52.183 45.8574 48.3306 45.8574 43.6448C45.8574 42.0054 45.2279 40.4617 44.1194 39.1366C44.1468 39.2322 44.1468 39.3279 44.1468 39.4235Z" fill="white"/>
</g>
<defs>
<clipPath id="clip0_2063_28505">
<rect width="150" height="40" fill="white" transform="translate(13 24)"/>
</clipPath>
</defs>
</svg>
